G04 Layer_Physical_Order=1*
G04 Layer_Color=255*
%FSLAX25Y25*%
%MOIN*%
G70*
G01*
G75*
%ADD10R,0.03740X0.03937*%
%ADD11R,0.03937X0.09646*%
%ADD12R,0.09646X0.03937*%
%ADD13R,0.03937X0.03740*%
%ADD14R,0.03937X0.03937*%
%ADD15R,0.03150X0.03150*%
%ADD16R,0.03740X0.03543*%
%ADD17C,0.01500*%
%ADD18C,0.06000*%
%ADD19R,0.06000X0.06000*%
%ADD20C,0.02200*%
%ADD21C,0.02800*%
D10*
X283000Y168350D02*
D03*
Y174650D02*
D03*
X289000Y168350D02*
D03*
Y174650D02*
D03*
X228500Y147150D02*
D03*
Y140850D02*
D03*
X234500Y147150D02*
D03*
Y140850D02*
D03*
D11*
X304925Y131693D02*
D03*
X299413D02*
D03*
X293902D02*
D03*
X288390D02*
D03*
X282878D02*
D03*
X277366D02*
D03*
X271854D02*
D03*
X266342D02*
D03*
Y82126D02*
D03*
X271854D02*
D03*
X277366D02*
D03*
X282878D02*
D03*
X288390D02*
D03*
X293902D02*
D03*
X299413D02*
D03*
X304925D02*
D03*
D12*
X257307Y126201D02*
D03*
Y120689D02*
D03*
Y115177D02*
D03*
Y109665D02*
D03*
Y104154D02*
D03*
Y98642D02*
D03*
Y93130D02*
D03*
Y87618D02*
D03*
D13*
X232150Y168500D02*
D03*
X225850D02*
D03*
X294150Y64000D02*
D03*
X287850D02*
D03*
X200701Y30500D02*
D03*
X213299Y30500D02*
D03*
X200575Y57000D02*
D03*
X213173Y57000D02*
D03*
X200575Y44000D02*
D03*
X213173Y44000D02*
D03*
X200701Y70500D02*
D03*
X213299Y70500D02*
D03*
X193799Y131500D02*
D03*
X181201Y131500D02*
D03*
X193799Y117500D02*
D03*
X181201Y117500D02*
D03*
X193799Y102000D02*
D03*
X181201Y102000D02*
D03*
X193799Y87000D02*
D03*
X181201Y87000D02*
D03*
D14*
X207000Y30500D02*
D03*
X206874Y57000D02*
D03*
X206874Y44000D02*
D03*
X207000Y70500D02*
D03*
X187500Y131500D02*
D03*
Y117500D02*
D03*
Y102000D02*
D03*
Y87000D02*
D03*
D15*
X164850Y131500D02*
D03*
X171150D02*
D03*
X164850Y117500D02*
D03*
X171150D02*
D03*
X164850Y102000D02*
D03*
X171150D02*
D03*
X164850Y87000D02*
D03*
X171150D02*
D03*
D16*
X87650Y44000D02*
D03*
X81350Y44000D02*
D03*
X87650Y38500D02*
D03*
X81350D02*
D03*
X87650Y33000D02*
D03*
X81350D02*
D03*
D17*
X200847Y104154D02*
X257307D01*
X187500Y117500D02*
X200847Y104154D01*
X190358Y98642D02*
X257307D01*
X187000Y102000D02*
X190358Y98642D01*
X212835Y109665D02*
X257307D01*
X197500Y125000D02*
X212835Y109665D01*
X188799Y122500D02*
X193799Y117500D01*
X187500Y131500D02*
X191500Y127500D01*
X230000D01*
X242500Y115000D01*
X257323D01*
X257500Y115177D01*
X185799Y110000D02*
X193799Y102000D01*
X160000Y110000D02*
X185799D01*
X212004Y93130D02*
X257307D01*
X200374Y81500D02*
X212004Y93130D01*
X187500Y87000D02*
X193000Y81500D01*
X200374D01*
X186799Y94000D02*
X193799Y87000D01*
X161500Y94000D02*
X186799D01*
X170500Y87000D02*
X170500Y87000D01*
X181201D01*
X171150Y102000D02*
X181201D01*
X171150Y102000D02*
X171150Y102000D01*
X171650Y117500D02*
X181201D01*
X171150Y118000D02*
X171650Y117500D01*
X129383Y126117D02*
Y199381D01*
Y126117D02*
X161500Y94000D01*
X129383Y209381D02*
X134500Y204264D01*
Y135500D02*
Y204264D01*
Y135500D02*
X160000Y110000D01*
X139383Y199381D02*
Y200000D01*
Y209381D02*
X144500Y204264D01*
X171150Y131500D02*
X181000D01*
X181500Y131000D01*
X87650Y38500D02*
Y44000D01*
Y33500D02*
Y38500D01*
Y21231D02*
Y33000D01*
X89383Y9764D02*
Y19381D01*
X89000Y9381D02*
X89383Y9764D01*
X87650Y21231D02*
X89500Y19381D01*
X81350Y38500D02*
Y44000D01*
X79383Y19500D02*
X81350Y21467D01*
Y32650D01*
Y33000D01*
X81350Y32650D02*
X81350Y32650D01*
X81500Y32500D01*
X81350Y32650D02*
Y38500D01*
X79383Y10617D02*
Y19381D01*
Y10617D02*
X79500Y10500D01*
X234500Y140850D02*
X248850Y126500D01*
X257307D01*
X248311Y120689D02*
X257307D01*
X228500Y140500D02*
X248311Y120689D01*
X160000Y117500D02*
X164850D01*
X160000Y102000D02*
X164850D01*
X160000Y87000D02*
X164850D01*
X155500Y125000D02*
X197500D01*
X144500Y136000D02*
Y204264D01*
Y136000D02*
X155500Y125000D01*
X139383Y135617D02*
Y199381D01*
Y135617D02*
X152500Y122500D01*
X188799D01*
X266342Y131693D02*
Y140000D01*
X304925Y78072D02*
Y82126D01*
X299413Y72561D02*
X304925Y78072D01*
X299413Y72561D02*
Y82126D01*
X293902Y64098D02*
Y82126D01*
Y64098D02*
X294000Y64000D01*
X288390Y64390D02*
Y82126D01*
X287850Y63850D02*
X288390Y64390D01*
X287850Y59500D02*
Y63850D01*
X288390Y131693D02*
Y146110D01*
X266000Y168500D02*
X288390Y146110D01*
X149383Y209381D02*
X153733Y205031D01*
X164500Y193000D02*
X173500Y184000D01*
X255500D01*
X293902Y145598D01*
Y131693D02*
Y145598D01*
X178883Y168500D02*
X225850D01*
X159383Y188000D02*
X178883Y168500D01*
X159383Y188000D02*
Y199381D01*
Y199500D01*
X169383Y199381D02*
X179764Y189000D01*
X268528D01*
X282878Y174650D01*
X271150Y192500D02*
X289000Y174650D01*
X186500Y192500D02*
X271150D01*
X184500Y194500D02*
X186500Y192500D01*
X184500Y194500D02*
Y200500D01*
X180500Y204500D02*
X184500Y200500D01*
X160000Y208500D02*
Y209500D01*
Y208500D02*
X164000Y204500D01*
X180500D01*
X164500Y193000D02*
Y201000D01*
X153733Y205031D02*
X160469D01*
X164500Y201000D01*
X289000Y168350D02*
X304182Y153169D01*
Y133000D02*
Y153169D01*
X299413Y131693D02*
Y144587D01*
X282878Y161122D02*
X299413Y144587D01*
X282878Y161122D02*
Y169000D01*
X248920Y87618D02*
X257307D01*
X294150Y59650D02*
Y64000D01*
X266342Y73343D02*
Y82126D01*
X265000Y72000D02*
X266342Y73343D01*
X245000Y72000D02*
X265000D01*
X239500Y77500D02*
X245000Y72000D01*
X213874Y77500D02*
X239500D01*
X206874Y70500D02*
X213874Y77500D01*
X271854Y69854D02*
Y82126D01*
X214374Y65000D02*
X267000D01*
X206874Y57500D02*
X214374Y65000D01*
X267000D02*
X271854Y69854D01*
X277366Y68366D02*
Y82126D01*
X259500Y50500D02*
X277366Y68366D01*
X212500Y50500D02*
X259500D01*
X207000Y45000D02*
X212500Y50500D01*
X207000Y44000D02*
Y45000D01*
X282878Y63378D02*
Y82126D01*
X255500Y36000D02*
X282878Y63378D01*
X207000Y30500D02*
X212500Y36000D01*
X255500D01*
X171500Y70500D02*
X200701D01*
X154750Y14133D02*
Y53750D01*
Y14133D02*
X159383Y9500D01*
X154750Y53750D02*
X171500Y70500D01*
X190500Y30500D02*
X200701D01*
X179500Y19500D02*
X190500Y30500D01*
X175000Y13881D02*
X179500Y9381D01*
X213299Y30500D02*
X229500D01*
X229383Y9500D02*
X234500Y14617D01*
Y25500D01*
X229500Y30500D02*
X234500Y25500D01*
X175000Y13881D02*
Y37000D01*
X195000Y57000D01*
X200575D01*
X193500Y44000D02*
X200575D01*
X213299Y70500D02*
X220000D01*
X220000Y70500D01*
X213173Y57000D02*
X220000D01*
X220000Y57000D01*
X213173Y44000D02*
X220000D01*
X220000Y44000D01*
X193799Y131500D02*
X201000D01*
X232500Y168500D02*
X266000D01*
X160000Y131500D02*
X164850D01*
X87650Y44000D02*
X130650Y87000D01*
X160000D01*
Y131500D02*
X175650Y147150D01*
X228500D01*
X234500D01*
X277850D02*
X282500Y142500D01*
Y131693D02*
Y142500D01*
X277366Y131693D02*
Y141638D01*
X271854Y147150D02*
X277366Y141638D01*
X271854Y147150D02*
X277850D01*
X271854Y131693D02*
Y141638D01*
X266342Y147150D02*
X271854Y141638D01*
X234500Y147150D02*
X266342D01*
X271854D01*
D18*
X89383Y19381D02*
D03*
Y9381D02*
D03*
X179383Y19381D02*
D03*
X189383Y9381D02*
D03*
X179383D02*
D03*
X289383D02*
D03*
X299383Y19381D02*
D03*
X259383Y9381D02*
D03*
X189383Y19381D02*
D03*
X199383Y9381D02*
D03*
X169383Y19381D02*
D03*
X99383D02*
D03*
Y9381D02*
D03*
X229383Y19381D02*
D03*
Y9381D02*
D03*
X239383D02*
D03*
X249383D02*
D03*
X239383Y19381D02*
D03*
X249383D02*
D03*
X259383D02*
D03*
X269383D02*
D03*
Y9381D02*
D03*
X279383Y19381D02*
D03*
Y9381D02*
D03*
X289383Y19381D02*
D03*
X299383Y9381D02*
D03*
X219383Y19381D02*
D03*
Y9381D02*
D03*
X209383D02*
D03*
Y19381D02*
D03*
X119383D02*
D03*
X109383D02*
D03*
Y9381D02*
D03*
X119383D02*
D03*
X199383Y19381D02*
D03*
X159383D02*
D03*
X139383Y9381D02*
D03*
X169383D02*
D03*
X129383Y19381D02*
D03*
X139383D02*
D03*
X129383Y9381D02*
D03*
X149383D02*
D03*
Y19381D02*
D03*
X159383Y9381D02*
D03*
X79383Y19381D02*
D03*
X89383Y209381D02*
D03*
Y199381D02*
D03*
X179383Y209381D02*
D03*
X189383Y199381D02*
D03*
X179383D02*
D03*
X289383D02*
D03*
X299383Y209381D02*
D03*
X259383Y199381D02*
D03*
X189383Y209381D02*
D03*
X199383Y199381D02*
D03*
X169383Y209381D02*
D03*
X99383D02*
D03*
Y199381D02*
D03*
X229383Y209381D02*
D03*
Y199381D02*
D03*
X239383D02*
D03*
X249383D02*
D03*
X239383Y209381D02*
D03*
X249383D02*
D03*
X259383D02*
D03*
X269383D02*
D03*
Y199381D02*
D03*
X279383Y209381D02*
D03*
Y199381D02*
D03*
X289383Y209381D02*
D03*
X299383Y199381D02*
D03*
X219383Y209381D02*
D03*
Y199381D02*
D03*
X209383D02*
D03*
Y209381D02*
D03*
X119383D02*
D03*
X109383D02*
D03*
Y199381D02*
D03*
X119383D02*
D03*
X199383Y209381D02*
D03*
X159383D02*
D03*
X139383Y199381D02*
D03*
X169383D02*
D03*
X129383Y209381D02*
D03*
X139383D02*
D03*
X129383Y199381D02*
D03*
X149383D02*
D03*
Y209381D02*
D03*
X159383Y199381D02*
D03*
X79383Y209381D02*
D03*
D19*
Y9381D02*
D03*
Y199381D02*
D03*
D20*
X160000Y117500D02*
D03*
Y102000D02*
D03*
Y87000D02*
D03*
X266342Y140000D02*
D03*
X299413Y72530D02*
D03*
X287850Y59500D02*
D03*
X248850Y87618D02*
D03*
X294144Y59650D02*
D03*
X193500Y44000D02*
D03*
X220000Y70500D02*
D03*
Y57000D02*
D03*
Y44000D02*
D03*
X201000Y131500D02*
D03*
D21*
X160000D02*
D03*
M02*
