G04 Layer_Color=8421504*
%FSLAX25Y25*%
%MOIN*%
G70*
G01*
G75*
%ADD10R,0.03740X0.03937*%
%ADD11R,0.03740X0.03543*%
%ADD12R,0.03150X0.03150*%
%ADD13R,0.03937X0.03937*%
%ADD14R,0.03937X0.03740*%
%ADD15R,0.03937X0.09646*%
%ADD16R,0.09646X0.03937*%
D10*
X234500Y140850D02*
D03*
Y147150D02*
D03*
X228500Y140850D02*
D03*
Y147150D02*
D03*
X283000Y174650D02*
D03*
Y168350D02*
D03*
X289000Y174650D02*
D03*
Y168350D02*
D03*
D11*
X81350Y33000D02*
D03*
X87650D02*
D03*
X81350Y38500D02*
D03*
X87650D02*
D03*
X81350Y44000D02*
D03*
X87650Y44000D02*
D03*
D12*
X171150Y87000D02*
D03*
X164850D02*
D03*
X171150Y102000D02*
D03*
X164850D02*
D03*
X171150Y117500D02*
D03*
X164850D02*
D03*
X171150Y131500D02*
D03*
X164850D02*
D03*
D13*
X187500Y87000D02*
D03*
Y102000D02*
D03*
Y117500D02*
D03*
Y131500D02*
D03*
X207000Y70500D02*
D03*
X206874Y44000D02*
D03*
X206874Y57000D02*
D03*
X207000Y30500D02*
D03*
D14*
X181201Y87000D02*
D03*
X193799Y87000D02*
D03*
X181201Y102000D02*
D03*
X193799Y102000D02*
D03*
X181201Y117500D02*
D03*
X193799Y117500D02*
D03*
X181201Y131500D02*
D03*
X193799Y131500D02*
D03*
X213299Y70500D02*
D03*
X200701Y70500D02*
D03*
X213173Y44000D02*
D03*
X200575Y44000D02*
D03*
X213173Y57000D02*
D03*
X200575Y57000D02*
D03*
X213299Y30500D02*
D03*
X200701Y30500D02*
D03*
X287850Y64000D02*
D03*
X294150D02*
D03*
X225850Y168500D02*
D03*
X232150D02*
D03*
D15*
X304925Y131693D02*
D03*
X299413D02*
D03*
X293902D02*
D03*
X288390Y131693D02*
D03*
X282878Y131693D02*
D03*
X277366D02*
D03*
X271854D02*
D03*
X266342D02*
D03*
Y82126D02*
D03*
X271854D02*
D03*
X277366D02*
D03*
X282878D02*
D03*
X288390Y82126D02*
D03*
X293902Y82126D02*
D03*
X299413D02*
D03*
X304925D02*
D03*
D16*
X257307Y126201D02*
D03*
X257307Y120689D02*
D03*
Y115177D02*
D03*
X257307Y109665D02*
D03*
Y104154D02*
D03*
X257307Y98642D02*
D03*
Y93130D02*
D03*
Y87618D02*
D03*
M02*
