G04 Layer_Physical_Order=4*
G04 Layer_Color=16711680*
%FSLAX25Y25*%
%MOIN*%
G70*
G01*
G75*
%ADD17C,0.01500*%
%ADD18R,0.06000X0.06000*%
%ADD19C,0.06000*%
%ADD20C,0.02200*%
G36*
X304909Y4591D02*
X73457D01*
Y83409D01*
X78740D01*
X79411Y83498D01*
X80036Y83756D01*
X80572Y84168D01*
X80984Y84705D01*
X81243Y85330D01*
X81331Y86000D01*
Y152441D01*
X81243Y153112D01*
X80984Y153736D01*
X80572Y154273D01*
X80036Y154685D01*
X79411Y154943D01*
X78740Y155032D01*
X73457D01*
Y214323D01*
X304909D01*
Y4591D01*
D02*
G37*
%LPC*%
G36*
X89383Y23012D02*
X88443Y22888D01*
X87568Y22526D01*
X86816Y21949D01*
X86239Y21197D01*
X85876Y20321D01*
X85752Y19381D01*
X85876Y18441D01*
X86239Y17566D01*
X86816Y16814D01*
X87568Y16236D01*
X88443Y15874D01*
X89383Y15750D01*
X90323Y15874D01*
X91199Y16236D01*
X91951Y16814D01*
X92528Y17566D01*
X92891Y18441D01*
X93014Y19381D01*
X92891Y20321D01*
X92528Y21197D01*
X91951Y21949D01*
X91199Y22526D01*
X90323Y22888D01*
X89383Y23012D01*
D02*
G37*
G36*
X303365Y18981D02*
X299783D01*
Y15399D01*
X300427Y15484D01*
X301400Y15887D01*
X302236Y16528D01*
X302877Y17364D01*
X303280Y18337D01*
X303365Y18981D01*
D02*
G37*
G36*
X298983D02*
X295401D01*
X295486Y18337D01*
X295889Y17364D01*
X296530Y16528D01*
X297366Y15887D01*
X298339Y15484D01*
X298983Y15399D01*
Y18981D01*
D02*
G37*
G36*
X99383Y23012D02*
X98443Y22888D01*
X97568Y22526D01*
X96816Y21949D01*
X96239Y21197D01*
X95876Y20321D01*
X95752Y19381D01*
X95876Y18441D01*
X96239Y17566D01*
X96816Y16814D01*
X97568Y16236D01*
X98443Y15874D01*
X99383Y15750D01*
X100323Y15874D01*
X101199Y16236D01*
X101951Y16814D01*
X102528Y17566D01*
X102891Y18441D01*
X103014Y19381D01*
X102891Y20321D01*
X102528Y21197D01*
X101951Y21949D01*
X101199Y22526D01*
X100323Y22888D01*
X99383Y23012D01*
D02*
G37*
G36*
X129383D02*
X128443Y22888D01*
X127568Y22526D01*
X126816Y21949D01*
X126239Y21197D01*
X125876Y20321D01*
X125752Y19381D01*
X125876Y18441D01*
X126239Y17566D01*
X126816Y16814D01*
X127568Y16236D01*
X128443Y15874D01*
X129383Y15750D01*
X130323Y15874D01*
X131199Y16236D01*
X131951Y16814D01*
X132528Y17566D01*
X132890Y18441D01*
X133014Y19381D01*
X132890Y20321D01*
X132528Y21197D01*
X131951Y21949D01*
X131199Y22526D01*
X130323Y22888D01*
X129383Y23012D01*
D02*
G37*
G36*
X119383D02*
X118443Y22888D01*
X117568Y22526D01*
X116816Y21949D01*
X116239Y21197D01*
X115876Y20321D01*
X115752Y19381D01*
X115876Y18441D01*
X116239Y17566D01*
X116816Y16814D01*
X117568Y16236D01*
X118443Y15874D01*
X119383Y15750D01*
X120323Y15874D01*
X121199Y16236D01*
X121951Y16814D01*
X122528Y17566D01*
X122890Y18441D01*
X123014Y19381D01*
X122890Y20321D01*
X122528Y21197D01*
X121951Y21949D01*
X121199Y22526D01*
X120323Y22888D01*
X119383Y23012D01*
D02*
G37*
G36*
X109383D02*
X108443Y22888D01*
X107568Y22526D01*
X106816Y21949D01*
X106239Y21197D01*
X105876Y20321D01*
X105752Y19381D01*
X105876Y18441D01*
X106239Y17566D01*
X106816Y16814D01*
X107568Y16236D01*
X108443Y15874D01*
X109383Y15750D01*
X110323Y15874D01*
X111199Y16236D01*
X111951Y16814D01*
X112528Y17566D01*
X112891Y18441D01*
X113014Y19381D01*
X112891Y20321D01*
X112528Y21197D01*
X111951Y21949D01*
X111199Y22526D01*
X110323Y22888D01*
X109383Y23012D01*
D02*
G37*
G36*
X299783Y13363D02*
Y9781D01*
X303365D01*
X303280Y10425D01*
X302877Y11398D01*
X302236Y12234D01*
X301400Y12875D01*
X300427Y13278D01*
X299783Y13363D01*
D02*
G37*
G36*
X298983D02*
X298339Y13278D01*
X297366Y12875D01*
X296530Y12234D01*
X295889Y11398D01*
X295486Y10425D01*
X295401Y9781D01*
X298983D01*
Y13363D01*
D02*
G37*
G36*
X289783D02*
Y9781D01*
X293365D01*
X293280Y10425D01*
X292877Y11398D01*
X292236Y12234D01*
X291400Y12875D01*
X290427Y13278D01*
X289783Y13363D01*
D02*
G37*
G36*
X78983Y18981D02*
X75401D01*
X75486Y18337D01*
X75889Y17364D01*
X76530Y16528D01*
X77366Y15887D01*
X78339Y15484D01*
X78983Y15399D01*
Y18981D01*
D02*
G37*
G36*
X293365D02*
X289783D01*
Y15399D01*
X290427Y15484D01*
X291400Y15887D01*
X292236Y16528D01*
X292877Y17364D01*
X293280Y18337D01*
X293365Y18981D01*
D02*
G37*
G36*
X288983D02*
X285401D01*
X285486Y18337D01*
X285889Y17364D01*
X286530Y16528D01*
X287366Y15887D01*
X288339Y15484D01*
X288983Y15399D01*
Y18981D01*
D02*
G37*
G36*
X83365D02*
X79783D01*
Y15399D01*
X80427Y15484D01*
X81400Y15887D01*
X82236Y16528D01*
X82877Y17364D01*
X83280Y18337D01*
X83365Y18981D01*
D02*
G37*
G36*
X249383Y23012D02*
X248443Y22888D01*
X247568Y22526D01*
X246816Y21949D01*
X246239Y21197D01*
X245876Y20321D01*
X245752Y19381D01*
X245876Y18441D01*
X246239Y17566D01*
X246816Y16814D01*
X247568Y16236D01*
X248443Y15874D01*
X249383Y15750D01*
X250323Y15874D01*
X251199Y16236D01*
X251951Y16814D01*
X252528Y17566D01*
X252890Y18441D01*
X253014Y19381D01*
X252890Y20321D01*
X252528Y21197D01*
X251951Y21949D01*
X251199Y22526D01*
X250323Y22888D01*
X249383Y23012D01*
D02*
G37*
G36*
X239383D02*
X238443Y22888D01*
X237568Y22526D01*
X236816Y21949D01*
X236239Y21197D01*
X235876Y20321D01*
X235752Y19381D01*
X235876Y18441D01*
X236239Y17566D01*
X236816Y16814D01*
X237568Y16236D01*
X238443Y15874D01*
X239383Y15750D01*
X240323Y15874D01*
X241199Y16236D01*
X241951Y16814D01*
X242528Y17566D01*
X242891Y18441D01*
X243014Y19381D01*
X242891Y20321D01*
X242528Y21197D01*
X241951Y21949D01*
X241199Y22526D01*
X240323Y22888D01*
X239383Y23012D01*
D02*
G37*
G36*
X229383D02*
X228443Y22888D01*
X227568Y22526D01*
X226816Y21949D01*
X226239Y21197D01*
X225876Y20321D01*
X225752Y19381D01*
X225876Y18441D01*
X226239Y17566D01*
X226816Y16814D01*
X227568Y16236D01*
X228443Y15874D01*
X229383Y15750D01*
X230323Y15874D01*
X231199Y16236D01*
X231951Y16814D01*
X232528Y17566D01*
X232891Y18441D01*
X233014Y19381D01*
X232891Y20321D01*
X232528Y21197D01*
X231951Y21949D01*
X231199Y22526D01*
X230323Y22888D01*
X229383Y23012D01*
D02*
G37*
G36*
X259383D02*
X258443Y22888D01*
X257568Y22526D01*
X256816Y21949D01*
X256239Y21197D01*
X255876Y20321D01*
X255752Y19381D01*
X255876Y18441D01*
X256239Y17566D01*
X256816Y16814D01*
X257568Y16236D01*
X258443Y15874D01*
X259383Y15750D01*
X260323Y15874D01*
X261199Y16236D01*
X261951Y16814D01*
X262528Y17566D01*
X262891Y18441D01*
X263014Y19381D01*
X262891Y20321D01*
X262528Y21197D01*
X261951Y21949D01*
X261199Y22526D01*
X260323Y22888D01*
X259383Y23012D01*
D02*
G37*
G36*
X78983Y23363D02*
X78339Y23278D01*
X77366Y22875D01*
X76530Y22234D01*
X75889Y21398D01*
X75486Y20425D01*
X75401Y19781D01*
X78983D01*
Y23363D01*
D02*
G37*
G36*
X279383Y23012D02*
X278443Y22888D01*
X277568Y22526D01*
X276816Y21949D01*
X276239Y21197D01*
X275876Y20321D01*
X275752Y19381D01*
X275876Y18441D01*
X276239Y17566D01*
X276816Y16814D01*
X277568Y16236D01*
X278443Y15874D01*
X279383Y15750D01*
X280323Y15874D01*
X281199Y16236D01*
X281951Y16814D01*
X282528Y17566D01*
X282891Y18441D01*
X283014Y19381D01*
X282891Y20321D01*
X282528Y21197D01*
X281951Y21949D01*
X281199Y22526D01*
X280323Y22888D01*
X279383Y23012D01*
D02*
G37*
G36*
X269383D02*
X268443Y22888D01*
X267568Y22526D01*
X266816Y21949D01*
X266239Y21197D01*
X265876Y20321D01*
X265752Y19381D01*
X265876Y18441D01*
X266239Y17566D01*
X266816Y16814D01*
X267568Y16236D01*
X268443Y15874D01*
X269383Y15750D01*
X270323Y15874D01*
X271199Y16236D01*
X271951Y16814D01*
X272528Y17566D01*
X272890Y18441D01*
X273014Y19381D01*
X272890Y20321D01*
X272528Y21197D01*
X271951Y21949D01*
X271199Y22526D01*
X270323Y22888D01*
X269383Y23012D01*
D02*
G37*
G36*
X169383D02*
X168443Y22888D01*
X167568Y22526D01*
X166816Y21949D01*
X166239Y21197D01*
X165876Y20321D01*
X165752Y19381D01*
X165876Y18441D01*
X166239Y17566D01*
X166816Y16814D01*
X167568Y16236D01*
X168443Y15874D01*
X169383Y15750D01*
X170323Y15874D01*
X171199Y16236D01*
X171951Y16814D01*
X172528Y17566D01*
X172890Y18441D01*
X173014Y19381D01*
X172890Y20321D01*
X172528Y21197D01*
X171951Y21949D01*
X171199Y22526D01*
X170323Y22888D01*
X169383Y23012D01*
D02*
G37*
G36*
X149383D02*
X148443Y22888D01*
X147568Y22526D01*
X146816Y21949D01*
X146239Y21197D01*
X145876Y20321D01*
X145752Y19381D01*
X145876Y18441D01*
X146239Y17566D01*
X146816Y16814D01*
X147568Y16236D01*
X148443Y15874D01*
X149383Y15750D01*
X150323Y15874D01*
X151199Y16236D01*
X151951Y16814D01*
X152528Y17566D01*
X152891Y18441D01*
X153014Y19381D01*
X152891Y20321D01*
X152528Y21197D01*
X151951Y21949D01*
X151199Y22526D01*
X150323Y22888D01*
X149383Y23012D01*
D02*
G37*
G36*
X139383D02*
X138443Y22888D01*
X137568Y22526D01*
X136816Y21949D01*
X136239Y21197D01*
X135876Y20321D01*
X135752Y19381D01*
X135876Y18441D01*
X136239Y17566D01*
X136816Y16814D01*
X137568Y16236D01*
X138443Y15874D01*
X139383Y15750D01*
X140323Y15874D01*
X141199Y16236D01*
X141951Y16814D01*
X142528Y17566D01*
X142891Y18441D01*
X143014Y19381D01*
X142891Y20321D01*
X142528Y21197D01*
X141951Y21949D01*
X141199Y22526D01*
X140323Y22888D01*
X139383Y23012D01*
D02*
G37*
G36*
X179383D02*
X178443Y22888D01*
X177568Y22526D01*
X176816Y21949D01*
X176239Y21197D01*
X175876Y20321D01*
X175752Y19381D01*
X175876Y18441D01*
X176239Y17566D01*
X176816Y16814D01*
X177568Y16236D01*
X178443Y15874D01*
X179383Y15750D01*
X180323Y15874D01*
X181199Y16236D01*
X181951Y16814D01*
X182528Y17566D01*
X182890Y18441D01*
X183014Y19381D01*
X182890Y20321D01*
X182528Y21197D01*
X181951Y21949D01*
X181199Y22526D01*
X180323Y22888D01*
X179383Y23012D01*
D02*
G37*
G36*
X220000Y72233D02*
X219337Y72101D01*
X218774Y71726D01*
X218399Y71163D01*
X218320Y70766D01*
X208527Y60973D01*
X208228Y60527D01*
X208123Y60000D01*
Y22756D01*
X207568Y22526D01*
X206816Y21949D01*
X206239Y21197D01*
X205876Y20321D01*
X205752Y19381D01*
X205876Y18441D01*
X206239Y17566D01*
X206816Y16814D01*
X207568Y16236D01*
X208443Y15874D01*
X209383Y15750D01*
X210323Y15874D01*
X211199Y16236D01*
X211951Y16814D01*
X212528Y17566D01*
X212624Y17797D01*
X213123Y17697D01*
Y13883D01*
X213228Y13356D01*
X213527Y12910D01*
X215946Y10491D01*
X215876Y10321D01*
X215752Y9381D01*
X215876Y8441D01*
X216239Y7565D01*
X216816Y6814D01*
X217568Y6236D01*
X218443Y5874D01*
X219383Y5750D01*
X220323Y5874D01*
X221199Y6236D01*
X221951Y6814D01*
X222528Y7565D01*
X222890Y8441D01*
X223014Y9381D01*
X222890Y10321D01*
X222528Y11197D01*
X221951Y11949D01*
X221199Y12526D01*
X220323Y12888D01*
X219383Y13012D01*
X218443Y12888D01*
X217735Y12595D01*
X215877Y14453D01*
Y17216D01*
X216376Y17386D01*
X216816Y16814D01*
X217568Y16236D01*
X218443Y15874D01*
X219383Y15750D01*
X220323Y15874D01*
X221199Y16236D01*
X221951Y16814D01*
X222528Y17566D01*
X222890Y18441D01*
X223014Y19381D01*
X222890Y20321D01*
X222528Y21197D01*
X221951Y21949D01*
X221199Y22526D01*
X220760Y22707D01*
Y36313D01*
X220973Y36527D01*
X221272Y36973D01*
X221376Y37500D01*
X221376Y37500D01*
Y43000D01*
X221601Y43337D01*
X221733Y44000D01*
X221601Y44663D01*
X221226Y45226D01*
X220663Y45601D01*
X220000Y45733D01*
X219337Y45601D01*
X218774Y45226D01*
X218399Y44663D01*
X218267Y44000D01*
X218399Y43337D01*
X218623Y43000D01*
Y38070D01*
X218410Y37857D01*
X218111Y37410D01*
X218007Y36883D01*
Y22707D01*
X217568Y22526D01*
X216816Y21949D01*
X216376Y21376D01*
X215877Y21546D01*
Y50930D01*
X220266Y55320D01*
X220663Y55399D01*
X221226Y55774D01*
X221601Y56337D01*
X221733Y57000D01*
X221601Y57663D01*
X221226Y58226D01*
X220663Y58601D01*
X220000Y58733D01*
X219337Y58601D01*
X218774Y58226D01*
X218399Y57663D01*
X218320Y57266D01*
X213527Y52473D01*
X213228Y52027D01*
X213123Y51500D01*
Y21065D01*
X212624Y20965D01*
X212528Y21197D01*
X211951Y21949D01*
X211199Y22526D01*
X210876Y22659D01*
Y59430D01*
X220266Y68820D01*
X220663Y68899D01*
X221226Y69274D01*
X221601Y69837D01*
X221733Y70500D01*
X221601Y71163D01*
X221226Y71726D01*
X220663Y72101D01*
X220000Y72233D01*
D02*
G37*
G36*
X199383Y23012D02*
X198443Y22888D01*
X197568Y22526D01*
X196816Y21949D01*
X196239Y21197D01*
X195876Y20321D01*
X195752Y19381D01*
X195876Y18441D01*
X196239Y17566D01*
X196816Y16814D01*
X197568Y16236D01*
X198443Y15874D01*
X199383Y15750D01*
X200323Y15874D01*
X201199Y16236D01*
X201951Y16814D01*
X202528Y17566D01*
X202890Y18441D01*
X203014Y19381D01*
X202890Y20321D01*
X202528Y21197D01*
X201951Y21949D01*
X201199Y22526D01*
X200323Y22888D01*
X199383Y23012D01*
D02*
G37*
G36*
X189383D02*
X188443Y22888D01*
X187568Y22526D01*
X186816Y21949D01*
X186239Y21197D01*
X185876Y20321D01*
X185752Y19381D01*
X185876Y18441D01*
X186239Y17566D01*
X186816Y16814D01*
X187568Y16236D01*
X188443Y15874D01*
X189383Y15750D01*
X190323Y15874D01*
X191199Y16236D01*
X191951Y16814D01*
X192528Y17566D01*
X192891Y18441D01*
X193014Y19381D01*
X192891Y20321D01*
X192528Y21197D01*
X191951Y21949D01*
X191199Y22526D01*
X190323Y22888D01*
X189383Y23012D01*
D02*
G37*
G36*
X119383Y13012D02*
X118443Y12888D01*
X117568Y12526D01*
X116816Y11949D01*
X116239Y11197D01*
X115876Y10321D01*
X115752Y9381D01*
X115876Y8441D01*
X116239Y7565D01*
X116816Y6814D01*
X117568Y6236D01*
X118443Y5874D01*
X119383Y5750D01*
X120323Y5874D01*
X121199Y6236D01*
X121951Y6814D01*
X122528Y7565D01*
X122890Y8441D01*
X123014Y9381D01*
X122890Y10321D01*
X122528Y11197D01*
X121951Y11949D01*
X121199Y12526D01*
X120323Y12888D01*
X119383Y13012D01*
D02*
G37*
G36*
X109383D02*
X108443Y12888D01*
X107568Y12526D01*
X106816Y11949D01*
X106239Y11197D01*
X105876Y10321D01*
X105752Y9381D01*
X105876Y8441D01*
X106239Y7565D01*
X106816Y6814D01*
X107568Y6236D01*
X108443Y5874D01*
X109383Y5750D01*
X110323Y5874D01*
X111199Y6236D01*
X111951Y6814D01*
X112528Y7565D01*
X112891Y8441D01*
X113014Y9381D01*
X112891Y10321D01*
X112528Y11197D01*
X111951Y11949D01*
X111199Y12526D01*
X110323Y12888D01*
X109383Y13012D01*
D02*
G37*
G36*
X99383D02*
X98443Y12888D01*
X97568Y12526D01*
X96816Y11949D01*
X96239Y11197D01*
X95876Y10321D01*
X95752Y9381D01*
X95876Y8441D01*
X96239Y7565D01*
X96816Y6814D01*
X97568Y6236D01*
X98443Y5874D01*
X99383Y5750D01*
X100323Y5874D01*
X101199Y6236D01*
X101951Y6814D01*
X102528Y7565D01*
X102891Y8441D01*
X103014Y9381D01*
X102891Y10321D01*
X102528Y11197D01*
X101951Y11949D01*
X101199Y12526D01*
X100323Y12888D01*
X99383Y13012D01*
D02*
G37*
G36*
X129383D02*
X128443Y12888D01*
X127568Y12526D01*
X126816Y11949D01*
X126239Y11197D01*
X125876Y10321D01*
X125752Y9381D01*
X125876Y8441D01*
X126239Y7565D01*
X126816Y6814D01*
X127568Y6236D01*
X128443Y5874D01*
X129383Y5750D01*
X130323Y5874D01*
X131199Y6236D01*
X131951Y6814D01*
X132528Y7565D01*
X132890Y8441D01*
X133014Y9381D01*
X132890Y10321D01*
X132528Y11197D01*
X131951Y11949D01*
X131199Y12526D01*
X130323Y12888D01*
X129383Y13012D01*
D02*
G37*
G36*
X159383D02*
X158443Y12888D01*
X157568Y12526D01*
X156816Y11949D01*
X156239Y11197D01*
X155876Y10321D01*
X155752Y9381D01*
X155876Y8441D01*
X156239Y7565D01*
X156816Y6814D01*
X157568Y6236D01*
X158443Y5874D01*
X159383Y5750D01*
X160323Y5874D01*
X161199Y6236D01*
X161951Y6814D01*
X162528Y7565D01*
X162891Y8441D01*
X163014Y9381D01*
X162891Y10321D01*
X162528Y11197D01*
X161951Y11949D01*
X161199Y12526D01*
X160323Y12888D01*
X159383Y13012D01*
D02*
G37*
G36*
X149383D02*
X148443Y12888D01*
X147568Y12526D01*
X146816Y11949D01*
X146239Y11197D01*
X145876Y10321D01*
X145752Y9381D01*
X145876Y8441D01*
X146239Y7565D01*
X146816Y6814D01*
X147568Y6236D01*
X148443Y5874D01*
X149383Y5750D01*
X150323Y5874D01*
X151199Y6236D01*
X151951Y6814D01*
X152528Y7565D01*
X152891Y8441D01*
X153014Y9381D01*
X152891Y10321D01*
X152528Y11197D01*
X151951Y11949D01*
X151199Y12526D01*
X150323Y12888D01*
X149383Y13012D01*
D02*
G37*
G36*
X139383D02*
X138443Y12888D01*
X137568Y12526D01*
X136816Y11949D01*
X136239Y11197D01*
X135876Y10321D01*
X135752Y9381D01*
X135876Y8441D01*
X136239Y7565D01*
X136816Y6814D01*
X137568Y6236D01*
X138443Y5874D01*
X139383Y5750D01*
X140323Y5874D01*
X141199Y6236D01*
X141951Y6814D01*
X142528Y7565D01*
X142891Y8441D01*
X143014Y9381D01*
X142891Y10321D01*
X142528Y11197D01*
X141951Y11949D01*
X141199Y12526D01*
X140323Y12888D01*
X139383Y13012D01*
D02*
G37*
G36*
X288983Y8981D02*
X285401D01*
X285486Y8337D01*
X285889Y7364D01*
X286530Y6528D01*
X287366Y5887D01*
X288339Y5484D01*
X288983Y5399D01*
Y8981D01*
D02*
G37*
G36*
X83383D02*
X79783D01*
Y5381D01*
X83383D01*
Y8981D01*
D02*
G37*
G36*
X78983D02*
X75383D01*
Y5381D01*
X78983D01*
Y8981D01*
D02*
G37*
G36*
X293365D02*
X289783D01*
Y5399D01*
X290427Y5484D01*
X291400Y5887D01*
X292236Y6528D01*
X292877Y7364D01*
X293280Y8337D01*
X293365Y8981D01*
D02*
G37*
G36*
X89383Y13012D02*
X88443Y12888D01*
X87568Y12526D01*
X86816Y11949D01*
X86239Y11197D01*
X85876Y10321D01*
X85752Y9381D01*
X85876Y8441D01*
X86239Y7565D01*
X86816Y6814D01*
X87568Y6236D01*
X88443Y5874D01*
X89383Y5750D01*
X90323Y5874D01*
X91199Y6236D01*
X91951Y6814D01*
X92528Y7565D01*
X92891Y8441D01*
X93014Y9381D01*
X92891Y10321D01*
X92528Y11197D01*
X91951Y11949D01*
X91199Y12526D01*
X90323Y12888D01*
X89383Y13012D01*
D02*
G37*
G36*
X303365Y8981D02*
X299783D01*
Y5399D01*
X300427Y5484D01*
X301400Y5887D01*
X302236Y6528D01*
X302877Y7364D01*
X303280Y8337D01*
X303365Y8981D01*
D02*
G37*
G36*
X298983D02*
X295401D01*
X295486Y8337D01*
X295889Y7364D01*
X296530Y6528D01*
X297366Y5887D01*
X298339Y5484D01*
X298983Y5399D01*
Y8981D01*
D02*
G37*
G36*
X269383Y13012D02*
X268443Y12888D01*
X267568Y12526D01*
X266816Y11949D01*
X266239Y11197D01*
X265876Y10321D01*
X265752Y9381D01*
X265876Y8441D01*
X266239Y7565D01*
X266816Y6814D01*
X267568Y6236D01*
X268443Y5874D01*
X269383Y5750D01*
X270323Y5874D01*
X271199Y6236D01*
X271951Y6814D01*
X272528Y7565D01*
X272890Y8441D01*
X273014Y9381D01*
X272890Y10321D01*
X272528Y11197D01*
X271951Y11949D01*
X271199Y12526D01*
X270323Y12888D01*
X269383Y13012D01*
D02*
G37*
G36*
X259383D02*
X258443Y12888D01*
X257568Y12526D01*
X256816Y11949D01*
X256239Y11197D01*
X255876Y10321D01*
X255752Y9381D01*
X255876Y8441D01*
X256239Y7565D01*
X256816Y6814D01*
X257568Y6236D01*
X258443Y5874D01*
X259383Y5750D01*
X260323Y5874D01*
X261199Y6236D01*
X261951Y6814D01*
X262528Y7565D01*
X262891Y8441D01*
X263014Y9381D01*
X262891Y10321D01*
X262528Y11197D01*
X261951Y11949D01*
X261199Y12526D01*
X260323Y12888D01*
X259383Y13012D01*
D02*
G37*
G36*
X249383D02*
X248443Y12888D01*
X247568Y12526D01*
X246816Y11949D01*
X246239Y11197D01*
X245876Y10321D01*
X245752Y9381D01*
X245876Y8441D01*
X246239Y7565D01*
X246816Y6814D01*
X247568Y6236D01*
X248443Y5874D01*
X249383Y5750D01*
X250323Y5874D01*
X251199Y6236D01*
X251951Y6814D01*
X252528Y7565D01*
X252890Y8441D01*
X253014Y9381D01*
X252890Y10321D01*
X252528Y11197D01*
X251951Y11949D01*
X251199Y12526D01*
X250323Y12888D01*
X249383Y13012D01*
D02*
G37*
G36*
X279383D02*
X278443Y12888D01*
X277568Y12526D01*
X276816Y11949D01*
X276239Y11197D01*
X275876Y10321D01*
X275752Y9381D01*
X275876Y8441D01*
X276239Y7565D01*
X276816Y6814D01*
X277568Y6236D01*
X278443Y5874D01*
X279383Y5750D01*
X280323Y5874D01*
X281199Y6236D01*
X281951Y6814D01*
X282528Y7565D01*
X282891Y8441D01*
X283014Y9381D01*
X282891Y10321D01*
X282528Y11197D01*
X281951Y11949D01*
X281199Y12526D01*
X280323Y12888D01*
X279383Y13012D01*
D02*
G37*
G36*
X288983Y13363D02*
X288339Y13278D01*
X287366Y12875D01*
X286530Y12234D01*
X285889Y11398D01*
X285486Y10425D01*
X285401Y9781D01*
X288983D01*
Y13363D01*
D02*
G37*
G36*
X83383Y13381D02*
X79783D01*
Y9781D01*
X83383D01*
Y13381D01*
D02*
G37*
G36*
X78983D02*
X75383D01*
Y9781D01*
X78983D01*
Y13381D01*
D02*
G37*
G36*
X189383Y13012D02*
X188443Y12888D01*
X187568Y12526D01*
X186816Y11949D01*
X186239Y11197D01*
X185876Y10321D01*
X185752Y9381D01*
X185876Y8441D01*
X186239Y7565D01*
X186816Y6814D01*
X187568Y6236D01*
X188443Y5874D01*
X189383Y5750D01*
X190323Y5874D01*
X191199Y6236D01*
X191951Y6814D01*
X192528Y7565D01*
X192891Y8441D01*
X193014Y9381D01*
X192891Y10321D01*
X192528Y11197D01*
X191951Y11949D01*
X191199Y12526D01*
X190323Y12888D01*
X189383Y13012D01*
D02*
G37*
G36*
X179383D02*
X178443Y12888D01*
X177568Y12526D01*
X176816Y11949D01*
X176239Y11197D01*
X175876Y10321D01*
X175752Y9381D01*
X175876Y8441D01*
X176239Y7565D01*
X176816Y6814D01*
X177568Y6236D01*
X178443Y5874D01*
X179383Y5750D01*
X180323Y5874D01*
X181199Y6236D01*
X181951Y6814D01*
X182528Y7565D01*
X182890Y8441D01*
X183014Y9381D01*
X182890Y10321D01*
X182528Y11197D01*
X181951Y11949D01*
X181199Y12526D01*
X180323Y12888D01*
X179383Y13012D01*
D02*
G37*
G36*
X169383D02*
X168443Y12888D01*
X167568Y12526D01*
X166816Y11949D01*
X166239Y11197D01*
X165876Y10321D01*
X165752Y9381D01*
X165876Y8441D01*
X166239Y7565D01*
X166816Y6814D01*
X167568Y6236D01*
X168443Y5874D01*
X169383Y5750D01*
X170323Y5874D01*
X171199Y6236D01*
X171951Y6814D01*
X172528Y7565D01*
X172890Y8441D01*
X173014Y9381D01*
X172890Y10321D01*
X172528Y11197D01*
X171951Y11949D01*
X171199Y12526D01*
X170323Y12888D01*
X169383Y13012D01*
D02*
G37*
G36*
X199383D02*
X198443Y12888D01*
X197568Y12526D01*
X196816Y11949D01*
X196239Y11197D01*
X195876Y10321D01*
X195752Y9381D01*
X195876Y8441D01*
X196239Y7565D01*
X196816Y6814D01*
X197568Y6236D01*
X198443Y5874D01*
X199383Y5750D01*
X200323Y5874D01*
X201199Y6236D01*
X201951Y6814D01*
X202528Y7565D01*
X202890Y8441D01*
X203014Y9381D01*
X202890Y10321D01*
X202528Y11197D01*
X201951Y11949D01*
X201199Y12526D01*
X200323Y12888D01*
X199383Y13012D01*
D02*
G37*
G36*
X239383D02*
X238443Y12888D01*
X237568Y12526D01*
X236816Y11949D01*
X236239Y11197D01*
X235876Y10321D01*
X235752Y9381D01*
X235876Y8441D01*
X236239Y7565D01*
X236816Y6814D01*
X237568Y6236D01*
X238443Y5874D01*
X239383Y5750D01*
X240323Y5874D01*
X241199Y6236D01*
X241951Y6814D01*
X242528Y7565D01*
X242891Y8441D01*
X243014Y9381D01*
X242891Y10321D01*
X242528Y11197D01*
X241951Y11949D01*
X241199Y12526D01*
X240323Y12888D01*
X239383Y13012D01*
D02*
G37*
G36*
X229383D02*
X228443Y12888D01*
X227568Y12526D01*
X226816Y11949D01*
X226239Y11197D01*
X225876Y10321D01*
X225752Y9381D01*
X225876Y8441D01*
X226239Y7565D01*
X226816Y6814D01*
X227568Y6236D01*
X228443Y5874D01*
X229383Y5750D01*
X230323Y5874D01*
X231199Y6236D01*
X231951Y6814D01*
X232528Y7565D01*
X232891Y8441D01*
X233014Y9381D01*
X232891Y10321D01*
X232528Y11197D01*
X231951Y11949D01*
X231199Y12526D01*
X230323Y12888D01*
X229383Y13012D01*
D02*
G37*
G36*
X209383D02*
X208443Y12888D01*
X207568Y12526D01*
X206816Y11949D01*
X206239Y11197D01*
X205876Y10321D01*
X205752Y9381D01*
X205876Y8441D01*
X206239Y7565D01*
X206816Y6814D01*
X207568Y6236D01*
X208443Y5874D01*
X209383Y5750D01*
X210323Y5874D01*
X211199Y6236D01*
X211951Y6814D01*
X212528Y7565D01*
X212891Y8441D01*
X213014Y9381D01*
X212891Y10321D01*
X212528Y11197D01*
X211951Y11949D01*
X211199Y12526D01*
X210323Y12888D01*
X209383Y13012D01*
D02*
G37*
G36*
X129383Y213012D02*
X128443Y212888D01*
X127568Y212526D01*
X126816Y211949D01*
X126239Y211197D01*
X125876Y210321D01*
X125752Y209381D01*
X125876Y208441D01*
X126239Y207565D01*
X126816Y206814D01*
X127568Y206236D01*
X128443Y205874D01*
X129383Y205750D01*
X130323Y205874D01*
X131199Y206236D01*
X131951Y206814D01*
X132528Y207565D01*
X132890Y208441D01*
X133014Y209381D01*
X132890Y210321D01*
X132528Y211197D01*
X131951Y211949D01*
X131199Y212526D01*
X130323Y212888D01*
X129383Y213012D01*
D02*
G37*
G36*
X119383D02*
X118443Y212888D01*
X117568Y212526D01*
X116816Y211949D01*
X116239Y211197D01*
X115876Y210321D01*
X115752Y209381D01*
X115876Y208441D01*
X116239Y207565D01*
X116816Y206814D01*
X117568Y206236D01*
X118443Y205874D01*
X119383Y205750D01*
X120323Y205874D01*
X121199Y206236D01*
X121951Y206814D01*
X122528Y207565D01*
X122890Y208441D01*
X123014Y209381D01*
X122890Y210321D01*
X122528Y211197D01*
X121951Y211949D01*
X121199Y212526D01*
X120323Y212888D01*
X119383Y213012D01*
D02*
G37*
G36*
X109383D02*
X108443Y212888D01*
X107568Y212526D01*
X106816Y211949D01*
X106239Y211197D01*
X105876Y210321D01*
X105752Y209381D01*
X105876Y208441D01*
X106239Y207565D01*
X106816Y206814D01*
X107568Y206236D01*
X108443Y205874D01*
X109383Y205750D01*
X110323Y205874D01*
X111199Y206236D01*
X111951Y206814D01*
X112528Y207565D01*
X112891Y208441D01*
X113014Y209381D01*
X112891Y210321D01*
X112528Y211197D01*
X111951Y211949D01*
X111199Y212526D01*
X110323Y212888D01*
X109383Y213012D01*
D02*
G37*
G36*
X139383D02*
X138443Y212888D01*
X137568Y212526D01*
X136816Y211949D01*
X136239Y211197D01*
X135876Y210321D01*
X135752Y209381D01*
X135876Y208441D01*
X136239Y207565D01*
X136816Y206814D01*
X137568Y206236D01*
X138443Y205874D01*
X139383Y205750D01*
X140323Y205874D01*
X141199Y206236D01*
X141951Y206814D01*
X142528Y207565D01*
X142891Y208441D01*
X143014Y209381D01*
X142891Y210321D01*
X142528Y211197D01*
X141951Y211949D01*
X141199Y212526D01*
X140323Y212888D01*
X139383Y213012D01*
D02*
G37*
G36*
X169383D02*
X168443Y212888D01*
X167568Y212526D01*
X166816Y211949D01*
X166239Y211197D01*
X165876Y210321D01*
X165752Y209381D01*
X165876Y208441D01*
X166239Y207565D01*
X166816Y206814D01*
X167568Y206236D01*
X168443Y205874D01*
X169383Y205750D01*
X170323Y205874D01*
X171199Y206236D01*
X171951Y206814D01*
X172528Y207565D01*
X172890Y208441D01*
X173014Y209381D01*
X172890Y210321D01*
X172528Y211197D01*
X171951Y211949D01*
X171199Y212526D01*
X170323Y212888D01*
X169383Y213012D01*
D02*
G37*
G36*
X159383D02*
X158443Y212888D01*
X157568Y212526D01*
X156816Y211949D01*
X156239Y211197D01*
X155876Y210321D01*
X155752Y209381D01*
X155876Y208441D01*
X156239Y207565D01*
X156816Y206814D01*
X157568Y206236D01*
X158443Y205874D01*
X159383Y205750D01*
X160323Y205874D01*
X161199Y206236D01*
X161951Y206814D01*
X162528Y207565D01*
X162891Y208441D01*
X163014Y209381D01*
X162891Y210321D01*
X162528Y211197D01*
X161951Y211949D01*
X161199Y212526D01*
X160323Y212888D01*
X159383Y213012D01*
D02*
G37*
G36*
X149383D02*
X148443Y212888D01*
X147568Y212526D01*
X146816Y211949D01*
X146239Y211197D01*
X145876Y210321D01*
X145752Y209381D01*
X145876Y208441D01*
X146239Y207565D01*
X146816Y206814D01*
X147568Y206236D01*
X148443Y205874D01*
X149383Y205750D01*
X150323Y205874D01*
X151199Y206236D01*
X151951Y206814D01*
X152528Y207565D01*
X152891Y208441D01*
X153014Y209381D01*
X152891Y210321D01*
X152528Y211197D01*
X151951Y211949D01*
X151199Y212526D01*
X150323Y212888D01*
X149383Y213012D01*
D02*
G37*
G36*
X199383D02*
X198443Y212888D01*
X197568Y212526D01*
X196816Y211949D01*
X196239Y211197D01*
X195876Y210321D01*
X195752Y209381D01*
X195876Y208441D01*
X196239Y207565D01*
X196816Y206814D01*
X197568Y206236D01*
X198443Y205874D01*
X199383Y205750D01*
X200323Y205874D01*
X200929Y206125D01*
X203124Y203930D01*
Y201065D01*
X202624Y200965D01*
X202528Y201197D01*
X201951Y201949D01*
X201199Y202526D01*
X200323Y202888D01*
X199383Y203012D01*
X198443Y202888D01*
X197568Y202526D01*
X196816Y201949D01*
X196239Y201197D01*
X195876Y200321D01*
X195752Y199381D01*
X195876Y198441D01*
X196239Y197565D01*
X196816Y196813D01*
X197568Y196236D01*
X198443Y195874D01*
X199383Y195750D01*
X200323Y195874D01*
X201199Y196236D01*
X201951Y196813D01*
X202528Y197565D01*
X202624Y197797D01*
X203124Y197697D01*
Y195070D01*
X200027Y191973D01*
X199728Y191527D01*
X199624Y191000D01*
Y132500D01*
X199399Y132163D01*
X199267Y131500D01*
X199399Y130837D01*
X199774Y130274D01*
X200337Y129899D01*
X201000Y129767D01*
X201663Y129899D01*
X202226Y130274D01*
X202601Y130837D01*
X202733Y131500D01*
X202601Y132163D01*
X202376Y132500D01*
Y190430D01*
X205473Y193527D01*
X205772Y193973D01*
X205876Y194500D01*
X205876Y194500D01*
Y197216D01*
X206377Y197386D01*
X206816Y196813D01*
X207568Y196236D01*
X208443Y195874D01*
X209383Y195750D01*
X210323Y195874D01*
X211199Y196236D01*
X211951Y196813D01*
X212528Y197565D01*
X212891Y198441D01*
X213014Y199381D01*
X212891Y200321D01*
X212528Y201197D01*
X211951Y201949D01*
X211199Y202526D01*
X210323Y202888D01*
X209383Y203012D01*
X208443Y202888D01*
X207568Y202526D01*
X206816Y201949D01*
X206377Y201376D01*
X205876Y201546D01*
Y204500D01*
X205876Y204500D01*
X205772Y205027D01*
X205473Y205473D01*
X202778Y208169D01*
X202890Y208441D01*
X203014Y209381D01*
X202890Y210321D01*
X202528Y211197D01*
X201951Y211949D01*
X201199Y212526D01*
X200323Y212888D01*
X199383Y213012D01*
D02*
G37*
G36*
X83383Y203381D02*
X79783D01*
Y199781D01*
X83383D01*
Y203381D01*
D02*
G37*
G36*
X78983D02*
X75383D01*
Y199781D01*
X78983D01*
Y203381D01*
D02*
G37*
G36*
Y208981D02*
X75401D01*
X75486Y208337D01*
X75889Y207364D01*
X76530Y206528D01*
X77366Y205887D01*
X78339Y205484D01*
X78983Y205399D01*
Y208981D01*
D02*
G37*
G36*
X99383Y213012D02*
X98443Y212888D01*
X97568Y212526D01*
X96816Y211949D01*
X96239Y211197D01*
X95876Y210321D01*
X95752Y209381D01*
X95876Y208441D01*
X96239Y207565D01*
X96816Y206814D01*
X97568Y206236D01*
X98443Y205874D01*
X99383Y205750D01*
X100323Y205874D01*
X101199Y206236D01*
X101951Y206814D01*
X102528Y207565D01*
X102891Y208441D01*
X103014Y209381D01*
X102891Y210321D01*
X102528Y211197D01*
X101951Y211949D01*
X101199Y212526D01*
X100323Y212888D01*
X99383Y213012D01*
D02*
G37*
G36*
X89383D02*
X88443Y212888D01*
X87568Y212526D01*
X86816Y211949D01*
X86239Y211197D01*
X85876Y210321D01*
X85752Y209381D01*
X85876Y208441D01*
X86239Y207565D01*
X86816Y206814D01*
X87568Y206236D01*
X88443Y205874D01*
X89383Y205750D01*
X90323Y205874D01*
X91199Y206236D01*
X91951Y206814D01*
X92528Y207565D01*
X92891Y208441D01*
X93014Y209381D01*
X92891Y210321D01*
X92528Y211197D01*
X91951Y211949D01*
X91199Y212526D01*
X90323Y212888D01*
X89383Y213012D01*
D02*
G37*
G36*
X83365Y208981D02*
X79783D01*
Y205399D01*
X80427Y205484D01*
X81400Y205887D01*
X82236Y206528D01*
X82877Y207364D01*
X83280Y208337D01*
X83365Y208981D01*
D02*
G37*
G36*
X279383Y213012D02*
X278443Y212888D01*
X277568Y212526D01*
X276816Y211949D01*
X276239Y211197D01*
X275876Y210321D01*
X275752Y209381D01*
X275876Y208441D01*
X276239Y207565D01*
X276816Y206814D01*
X277568Y206236D01*
X278443Y205874D01*
X279383Y205750D01*
X280323Y205874D01*
X281199Y206236D01*
X281951Y206814D01*
X282528Y207565D01*
X282891Y208441D01*
X283014Y209381D01*
X282891Y210321D01*
X282528Y211197D01*
X281951Y211949D01*
X281199Y212526D01*
X280323Y212888D01*
X279383Y213012D01*
D02*
G37*
G36*
X269383D02*
X268443Y212888D01*
X267568Y212526D01*
X266816Y211949D01*
X266239Y211197D01*
X265876Y210321D01*
X265752Y209381D01*
X265876Y208441D01*
X266239Y207565D01*
X266816Y206814D01*
X267568Y206236D01*
X268443Y205874D01*
X269383Y205750D01*
X270323Y205874D01*
X271199Y206236D01*
X271951Y206814D01*
X272528Y207565D01*
X272890Y208441D01*
X273014Y209381D01*
X272890Y210321D01*
X272528Y211197D01*
X271951Y211949D01*
X271199Y212526D01*
X270323Y212888D01*
X269383Y213012D01*
D02*
G37*
G36*
X259383D02*
X258443Y212888D01*
X257568Y212526D01*
X256816Y211949D01*
X256239Y211197D01*
X255876Y210321D01*
X255752Y209381D01*
X255876Y208441D01*
X256239Y207565D01*
X256816Y206814D01*
X257568Y206236D01*
X258443Y205874D01*
X259383Y205750D01*
X260323Y205874D01*
X261199Y206236D01*
X261951Y206814D01*
X262528Y207565D01*
X262891Y208441D01*
X263014Y209381D01*
X262891Y210321D01*
X262528Y211197D01*
X261951Y211949D01*
X261199Y212526D01*
X260323Y212888D01*
X259383Y213012D01*
D02*
G37*
G36*
X289383D02*
X288443Y212888D01*
X287568Y212526D01*
X286816Y211949D01*
X286239Y211197D01*
X285876Y210321D01*
X285752Y209381D01*
X285876Y208441D01*
X286239Y207565D01*
X286816Y206814D01*
X287568Y206236D01*
X288443Y205874D01*
X289383Y205750D01*
X290323Y205874D01*
X291199Y206236D01*
X291951Y206814D01*
X292528Y207565D01*
X292891Y208441D01*
X293014Y209381D01*
X292891Y210321D01*
X292528Y211197D01*
X291951Y211949D01*
X291199Y212526D01*
X290323Y212888D01*
X289383Y213012D01*
D02*
G37*
G36*
X79783Y213363D02*
Y209781D01*
X83365D01*
X83280Y210425D01*
X82877Y211398D01*
X82236Y212234D01*
X81400Y212875D01*
X80427Y213278D01*
X79783Y213363D01*
D02*
G37*
G36*
X78983D02*
X78339Y213278D01*
X77366Y212875D01*
X76530Y212234D01*
X75889Y211398D01*
X75486Y210425D01*
X75401Y209781D01*
X78983D01*
Y213363D01*
D02*
G37*
G36*
X299383Y213012D02*
X298443Y212888D01*
X297568Y212526D01*
X296816Y211949D01*
X296239Y211197D01*
X295876Y210321D01*
X295752Y209381D01*
X295876Y208441D01*
X296239Y207565D01*
X296816Y206814D01*
X297568Y206236D01*
X298443Y205874D01*
X299383Y205750D01*
X300323Y205874D01*
X301199Y206236D01*
X301951Y206814D01*
X302528Y207565D01*
X302890Y208441D01*
X303014Y209381D01*
X302890Y210321D01*
X302528Y211197D01*
X301951Y211949D01*
X301199Y212526D01*
X300323Y212888D01*
X299383Y213012D01*
D02*
G37*
G36*
X209383D02*
X208443Y212888D01*
X207568Y212526D01*
X206816Y211949D01*
X206239Y211197D01*
X205876Y210321D01*
X205752Y209381D01*
X205876Y208441D01*
X206239Y207565D01*
X206816Y206814D01*
X207568Y206236D01*
X208443Y205874D01*
X209383Y205750D01*
X210323Y205874D01*
X211199Y206236D01*
X211951Y206814D01*
X212528Y207565D01*
X212891Y208441D01*
X213014Y209381D01*
X212891Y210321D01*
X212528Y211197D01*
X211951Y211949D01*
X211199Y212526D01*
X210323Y212888D01*
X209383Y213012D01*
D02*
G37*
G36*
X189383D02*
X188443Y212888D01*
X187568Y212526D01*
X186816Y211949D01*
X186239Y211197D01*
X185876Y210321D01*
X185752Y209381D01*
X185876Y208441D01*
X186239Y207565D01*
X186816Y206814D01*
X187568Y206236D01*
X188443Y205874D01*
X189383Y205750D01*
X190323Y205874D01*
X191199Y206236D01*
X191951Y206814D01*
X192528Y207565D01*
X192891Y208441D01*
X193014Y209381D01*
X192891Y210321D01*
X192528Y211197D01*
X191951Y211949D01*
X191199Y212526D01*
X190323Y212888D01*
X189383Y213012D01*
D02*
G37*
G36*
X179383D02*
X178443Y212888D01*
X177568Y212526D01*
X176816Y211949D01*
X176239Y211197D01*
X175876Y210321D01*
X175752Y209381D01*
X175876Y208441D01*
X176239Y207565D01*
X176816Y206814D01*
X177568Y206236D01*
X178443Y205874D01*
X179383Y205750D01*
X180323Y205874D01*
X181199Y206236D01*
X181951Y206814D01*
X182528Y207565D01*
X182890Y208441D01*
X183014Y209381D01*
X182890Y210321D01*
X182528Y211197D01*
X181951Y211949D01*
X181199Y212526D01*
X180323Y212888D01*
X179383Y213012D01*
D02*
G37*
G36*
X219383D02*
X218443Y212888D01*
X217568Y212526D01*
X216816Y211949D01*
X216239Y211197D01*
X215876Y210321D01*
X215752Y209381D01*
X215876Y208441D01*
X216239Y207565D01*
X216816Y206814D01*
X217568Y206236D01*
X218443Y205874D01*
X219383Y205750D01*
X220323Y205874D01*
X221199Y206236D01*
X221951Y206814D01*
X222528Y207565D01*
X222890Y208441D01*
X223014Y209381D01*
X222890Y210321D01*
X222528Y211197D01*
X221951Y211949D01*
X221199Y212526D01*
X220323Y212888D01*
X219383Y213012D01*
D02*
G37*
G36*
X249383D02*
X248443Y212888D01*
X247568Y212526D01*
X246816Y211949D01*
X246239Y211197D01*
X245876Y210321D01*
X245752Y209381D01*
X245876Y208441D01*
X246239Y207565D01*
X246816Y206814D01*
X247568Y206236D01*
X248443Y205874D01*
X249383Y205750D01*
X250323Y205874D01*
X251199Y206236D01*
X251951Y206814D01*
X252528Y207565D01*
X252890Y208441D01*
X253014Y209381D01*
X252890Y210321D01*
X252528Y211197D01*
X251951Y211949D01*
X251199Y212526D01*
X250323Y212888D01*
X249383Y213012D01*
D02*
G37*
G36*
X239383D02*
X238443Y212888D01*
X237568Y212526D01*
X236816Y211949D01*
X236239Y211197D01*
X235876Y210321D01*
X235752Y209381D01*
X235876Y208441D01*
X236239Y207565D01*
X236816Y206814D01*
X237568Y206236D01*
X238443Y205874D01*
X239383Y205750D01*
X240323Y205874D01*
X241199Y206236D01*
X241951Y206814D01*
X242528Y207565D01*
X242891Y208441D01*
X243014Y209381D01*
X242891Y210321D01*
X242528Y211197D01*
X241951Y211949D01*
X241199Y212526D01*
X240323Y212888D01*
X239383Y213012D01*
D02*
G37*
G36*
X229383D02*
X228443Y212888D01*
X227568Y212526D01*
X226816Y211949D01*
X226239Y211197D01*
X225876Y210321D01*
X225752Y209381D01*
X225876Y208441D01*
X226239Y207565D01*
X226816Y206814D01*
X227568Y206236D01*
X228443Y205874D01*
X229383Y205750D01*
X230323Y205874D01*
X231199Y206236D01*
X231951Y206814D01*
X232528Y207565D01*
X232891Y208441D01*
X233014Y209381D01*
X232891Y210321D01*
X232528Y211197D01*
X231951Y211949D01*
X231199Y212526D01*
X230323Y212888D01*
X229383Y213012D01*
D02*
G37*
G36*
X299383Y203012D02*
X298443Y202888D01*
X297568Y202526D01*
X296816Y201949D01*
X296239Y201197D01*
X295876Y200321D01*
X295752Y199381D01*
X295876Y198441D01*
X296239Y197565D01*
X296816Y196813D01*
X297568Y196236D01*
X298443Y195874D01*
X299383Y195750D01*
X300323Y195874D01*
X301199Y196236D01*
X301951Y196813D01*
X302528Y197565D01*
X302890Y198441D01*
X303014Y199381D01*
X302890Y200321D01*
X302528Y201197D01*
X301951Y201949D01*
X301199Y202526D01*
X300323Y202888D01*
X299383Y203012D01*
D02*
G37*
G36*
X83383Y198981D02*
X79783D01*
Y195381D01*
X83383D01*
Y198981D01*
D02*
G37*
G36*
X78983D02*
X75383D01*
Y195381D01*
X78983D01*
Y198981D01*
D02*
G37*
G36*
X160000Y119233D02*
X159337Y119101D01*
X158774Y118726D01*
X158399Y118163D01*
X158267Y117500D01*
X158399Y116837D01*
X158624Y116500D01*
Y103000D01*
X158399Y102663D01*
X158267Y102000D01*
X158399Y101337D01*
X158624Y101000D01*
Y88000D01*
X158399Y87663D01*
X158267Y87000D01*
X158399Y86337D01*
X158774Y85774D01*
X159337Y85399D01*
X160000Y85267D01*
X160663Y85399D01*
X161226Y85774D01*
X161601Y86337D01*
X161733Y87000D01*
X161601Y87663D01*
X161376Y88000D01*
Y101000D01*
X161601Y101337D01*
X161733Y102000D01*
X161601Y102663D01*
X161376Y103000D01*
Y116500D01*
X161601Y116837D01*
X161733Y117500D01*
X161601Y118163D01*
X161226Y118726D01*
X160663Y119101D01*
X160000Y119233D01*
D02*
G37*
G36*
X89383Y203012D02*
X88443Y202888D01*
X87568Y202526D01*
X86816Y201949D01*
X86239Y201197D01*
X85876Y200321D01*
X85752Y199381D01*
X85876Y198441D01*
X86239Y197565D01*
X86816Y196813D01*
X87568Y196236D01*
X88443Y195874D01*
X89383Y195750D01*
X90323Y195874D01*
X91199Y196236D01*
X91951Y196813D01*
X92528Y197565D01*
X92891Y198441D01*
X93014Y199381D01*
X92891Y200321D01*
X92528Y201197D01*
X91951Y201949D01*
X91199Y202526D01*
X90323Y202888D01*
X89383Y203012D01*
D02*
G37*
G36*
X119383D02*
X118443Y202888D01*
X117568Y202526D01*
X116816Y201949D01*
X116239Y201197D01*
X115876Y200321D01*
X115752Y199381D01*
X115876Y198441D01*
X116239Y197565D01*
X116816Y196813D01*
X117568Y196236D01*
X118443Y195874D01*
X119383Y195750D01*
X120323Y195874D01*
X121199Y196236D01*
X121951Y196813D01*
X122528Y197565D01*
X122890Y198441D01*
X123014Y199381D01*
X122890Y200321D01*
X122528Y201197D01*
X121951Y201949D01*
X121199Y202526D01*
X120323Y202888D01*
X119383Y203012D01*
D02*
G37*
G36*
X109383D02*
X108443Y202888D01*
X107568Y202526D01*
X106816Y201949D01*
X106239Y201197D01*
X105876Y200321D01*
X105752Y199381D01*
X105876Y198441D01*
X106239Y197565D01*
X106816Y196813D01*
X107568Y196236D01*
X108443Y195874D01*
X109383Y195750D01*
X110323Y195874D01*
X111199Y196236D01*
X111951Y196813D01*
X112528Y197565D01*
X112891Y198441D01*
X113014Y199381D01*
X112891Y200321D01*
X112528Y201197D01*
X111951Y201949D01*
X111199Y202526D01*
X110323Y202888D01*
X109383Y203012D01*
D02*
G37*
G36*
X99383D02*
X98443Y202888D01*
X97568Y202526D01*
X96816Y201949D01*
X96239Y201197D01*
X95876Y200321D01*
X95752Y199381D01*
X95876Y198441D01*
X96239Y197565D01*
X96816Y196813D01*
X97568Y196236D01*
X98443Y195874D01*
X99383Y195750D01*
X100323Y195874D01*
X101199Y196236D01*
X101951Y196813D01*
X102528Y197565D01*
X102891Y198441D01*
X103014Y199381D01*
X102891Y200321D01*
X102528Y201197D01*
X101951Y201949D01*
X101199Y202526D01*
X100323Y202888D01*
X99383Y203012D01*
D02*
G37*
G36*
X289783Y23363D02*
Y19781D01*
X293365D01*
X293280Y20425D01*
X292877Y21398D01*
X292236Y22234D01*
X291400Y22875D01*
X290427Y23278D01*
X289783Y23363D01*
D02*
G37*
G36*
X288983D02*
X288339Y23278D01*
X287366Y22875D01*
X286530Y22234D01*
X285889Y21398D01*
X285486Y20425D01*
X285401Y19781D01*
X288983D01*
Y23363D01*
D02*
G37*
G36*
X79783D02*
Y19781D01*
X83365D01*
X83280Y20425D01*
X82877Y21398D01*
X82236Y22234D01*
X81400Y22875D01*
X80427Y23278D01*
X79783Y23363D01*
D02*
G37*
G36*
X298983D02*
X298339Y23278D01*
X297366Y22875D01*
X296530Y22234D01*
X295889Y21398D01*
X295486Y20425D01*
X295401Y19781D01*
X298983D01*
Y23363D01*
D02*
G37*
G36*
X149383Y203012D02*
X148443Y202888D01*
X147568Y202526D01*
X146816Y201949D01*
X146239Y201197D01*
X145876Y200321D01*
X145752Y199381D01*
X145876Y198441D01*
X146239Y197565D01*
X146816Y196813D01*
X147568Y196236D01*
X148124Y196006D01*
Y173500D01*
X148228Y172973D01*
X148527Y172527D01*
X267527Y53527D01*
X267527Y53527D01*
X267973Y53228D01*
X268500Y53124D01*
X288994D01*
X289521Y53228D01*
X289967Y53527D01*
X294410Y57969D01*
X294807Y58048D01*
X295369Y58424D01*
X295745Y58986D01*
X295877Y59650D01*
X295745Y60313D01*
X295369Y60875D01*
X294807Y61251D01*
X294144Y61383D01*
X293480Y61251D01*
X292918Y60875D01*
X292542Y60313D01*
X292463Y59916D01*
X288424Y55876D01*
X269070D01*
X150876Y174070D01*
Y196103D01*
X151199Y196236D01*
X151951Y196813D01*
X152528Y197565D01*
X152891Y198441D01*
X153014Y199381D01*
X152891Y200321D01*
X152528Y201197D01*
X151951Y201949D01*
X151199Y202526D01*
X150323Y202888D01*
X149383Y203012D01*
D02*
G37*
G36*
X193500Y45733D02*
X192837Y45601D01*
X192500Y45376D01*
X173500D01*
X172973Y45272D01*
X172527Y44973D01*
X158527Y30973D01*
X158228Y30527D01*
X158124Y30000D01*
Y22756D01*
X157568Y22526D01*
X156816Y21949D01*
X156239Y21197D01*
X155876Y20321D01*
X155752Y19381D01*
X155876Y18441D01*
X156239Y17566D01*
X156816Y16814D01*
X157568Y16236D01*
X158443Y15874D01*
X159383Y15750D01*
X160323Y15874D01*
X161199Y16236D01*
X161951Y16814D01*
X162528Y17566D01*
X162891Y18441D01*
X163014Y19381D01*
X162891Y20321D01*
X162528Y21197D01*
X161951Y21949D01*
X161199Y22526D01*
X160876Y22659D01*
Y29430D01*
X174070Y42624D01*
X192500D01*
X192837Y42399D01*
X193500Y42267D01*
X194163Y42399D01*
X194726Y42774D01*
X195101Y43337D01*
X195233Y44000D01*
X195101Y44663D01*
X194726Y45226D01*
X194163Y45601D01*
X193500Y45733D01*
D02*
G37*
G36*
X299783Y23363D02*
Y19781D01*
X303365D01*
X303280Y20425D01*
X302877Y21398D01*
X302236Y22234D01*
X301400Y22875D01*
X300427Y23278D01*
X299783Y23363D01*
D02*
G37*
G36*
X249383Y203012D02*
X248443Y202888D01*
X247568Y202526D01*
X246816Y201949D01*
X246239Y201197D01*
X245876Y200321D01*
X245752Y199381D01*
X245876Y198441D01*
X246239Y197565D01*
X246816Y196813D01*
X247568Y196236D01*
X248443Y195874D01*
X249383Y195750D01*
X250323Y195874D01*
X251199Y196236D01*
X251951Y196813D01*
X252528Y197565D01*
X252890Y198441D01*
X253014Y199381D01*
X252890Y200321D01*
X252528Y201197D01*
X251951Y201949D01*
X251199Y202526D01*
X250323Y202888D01*
X249383Y203012D01*
D02*
G37*
G36*
X239383D02*
X238443Y202888D01*
X237568Y202526D01*
X236816Y201949D01*
X236239Y201197D01*
X235876Y200321D01*
X235752Y199381D01*
X235876Y198441D01*
X236239Y197565D01*
X236816Y196813D01*
X237568Y196236D01*
X238443Y195874D01*
X239383Y195750D01*
X240323Y195874D01*
X241199Y196236D01*
X241951Y196813D01*
X242528Y197565D01*
X242891Y198441D01*
X243014Y199381D01*
X242891Y200321D01*
X242528Y201197D01*
X241951Y201949D01*
X241199Y202526D01*
X240323Y202888D01*
X239383Y203012D01*
D02*
G37*
G36*
X229383D02*
X228443Y202888D01*
X227568Y202526D01*
X226816Y201949D01*
X226239Y201197D01*
X225876Y200321D01*
X225752Y199381D01*
X225876Y198441D01*
X226239Y197565D01*
X226816Y196813D01*
X227568Y196236D01*
X228443Y195874D01*
X229383Y195750D01*
X230323Y195874D01*
X231199Y196236D01*
X231951Y196813D01*
X232528Y197565D01*
X232891Y198441D01*
X233014Y199381D01*
X232891Y200321D01*
X232528Y201197D01*
X231951Y201949D01*
X231199Y202526D01*
X230323Y202888D01*
X229383Y203012D01*
D02*
G37*
G36*
X259383D02*
X258443Y202888D01*
X257568Y202526D01*
X256816Y201949D01*
X256239Y201197D01*
X255876Y200321D01*
X255752Y199381D01*
X255876Y198441D01*
X256239Y197565D01*
X256816Y196813D01*
X257568Y196236D01*
X258443Y195874D01*
X259383Y195750D01*
X260323Y195874D01*
X261199Y196236D01*
X261951Y196813D01*
X262528Y197565D01*
X262891Y198441D01*
X263014Y199381D01*
X262891Y200321D01*
X262528Y201197D01*
X261951Y201949D01*
X261199Y202526D01*
X260323Y202888D01*
X259383Y203012D01*
D02*
G37*
G36*
X289383D02*
X288443Y202888D01*
X287568Y202526D01*
X286816Y201949D01*
X286239Y201197D01*
X285876Y200321D01*
X285752Y199381D01*
X285876Y198441D01*
X286239Y197565D01*
X286816Y196813D01*
X287568Y196236D01*
X288443Y195874D01*
X289383Y195750D01*
X290323Y195874D01*
X291199Y196236D01*
X291951Y196813D01*
X292528Y197565D01*
X292891Y198441D01*
X293014Y199381D01*
X292891Y200321D01*
X292528Y201197D01*
X291951Y201949D01*
X291199Y202526D01*
X290323Y202888D01*
X289383Y203012D01*
D02*
G37*
G36*
X279383D02*
X278443Y202888D01*
X277568Y202526D01*
X276816Y201949D01*
X276239Y201197D01*
X275876Y200321D01*
X275752Y199381D01*
X275876Y198441D01*
X276239Y197565D01*
X276816Y196813D01*
X277568Y196236D01*
X278443Y195874D01*
X279383Y195750D01*
X280323Y195874D01*
X281199Y196236D01*
X281951Y196813D01*
X282528Y197565D01*
X282891Y198441D01*
X283014Y199381D01*
X282891Y200321D01*
X282528Y201197D01*
X281951Y201949D01*
X281199Y202526D01*
X280323Y202888D01*
X279383Y203012D01*
D02*
G37*
G36*
X269383D02*
X268443Y202888D01*
X267568Y202526D01*
X266816Y201949D01*
X266239Y201197D01*
X265876Y200321D01*
X265752Y199381D01*
X265876Y198441D01*
X266239Y197565D01*
X266816Y196813D01*
X267568Y196236D01*
X268443Y195874D01*
X269383Y195750D01*
X270323Y195874D01*
X271199Y196236D01*
X271951Y196813D01*
X272528Y197565D01*
X272890Y198441D01*
X273014Y199381D01*
X272890Y200321D01*
X272528Y201197D01*
X271951Y201949D01*
X271199Y202526D01*
X270323Y202888D01*
X269383Y203012D01*
D02*
G37*
G36*
X159383D02*
X158443Y202888D01*
X157568Y202526D01*
X156816Y201949D01*
X156239Y201197D01*
X155876Y200321D01*
X155752Y199381D01*
X155876Y198441D01*
X156239Y197565D01*
X156816Y196813D01*
X157568Y196236D01*
X158443Y195874D01*
X159383Y195750D01*
X160323Y195874D01*
X161199Y196236D01*
X161951Y196813D01*
X162528Y197565D01*
X162891Y198441D01*
X163014Y199381D01*
X162891Y200321D01*
X162528Y201197D01*
X161951Y201949D01*
X161199Y202526D01*
X160323Y202888D01*
X159383Y203012D01*
D02*
G37*
G36*
X139383D02*
X138443Y202888D01*
X137568Y202526D01*
X136816Y201949D01*
X136239Y201197D01*
X135876Y200321D01*
X135752Y199381D01*
X135876Y198441D01*
X136239Y197565D01*
X136816Y196813D01*
X137568Y196236D01*
X138443Y195874D01*
X139383Y195750D01*
X140323Y195874D01*
X141199Y196236D01*
X141951Y196813D01*
X142528Y197565D01*
X142891Y198441D01*
X143014Y199381D01*
X142891Y200321D01*
X142528Y201197D01*
X141951Y201949D01*
X141199Y202526D01*
X140323Y202888D01*
X139383Y203012D01*
D02*
G37*
G36*
X129383D02*
X128443Y202888D01*
X127568Y202526D01*
X126816Y201949D01*
X126239Y201197D01*
X125876Y200321D01*
X125752Y199381D01*
X125876Y198441D01*
X126239Y197565D01*
X126816Y196813D01*
X127568Y196236D01*
X128443Y195874D01*
X129383Y195750D01*
X130323Y195874D01*
X131199Y196236D01*
X131951Y196813D01*
X132528Y197565D01*
X132890Y198441D01*
X133014Y199381D01*
X132890Y200321D01*
X132528Y201197D01*
X131951Y201949D01*
X131199Y202526D01*
X130323Y202888D01*
X129383Y203012D01*
D02*
G37*
G36*
X169383D02*
X168443Y202888D01*
X167568Y202526D01*
X166816Y201949D01*
X166239Y201197D01*
X165876Y200321D01*
X165752Y199381D01*
X165876Y198441D01*
X166239Y197565D01*
X166816Y196813D01*
X167568Y196236D01*
X168443Y195874D01*
X169383Y195750D01*
X170323Y195874D01*
X171199Y196236D01*
X171951Y196813D01*
X172528Y197565D01*
X172890Y198441D01*
X173014Y199381D01*
X172890Y200321D01*
X172528Y201197D01*
X171951Y201949D01*
X171199Y202526D01*
X170323Y202888D01*
X169383Y203012D01*
D02*
G37*
G36*
X219383D02*
X218443Y202888D01*
X217568Y202526D01*
X216816Y201949D01*
X216239Y201197D01*
X215876Y200321D01*
X215752Y199381D01*
X215876Y198441D01*
X216239Y197565D01*
X216816Y196813D01*
X217568Y196236D01*
X218443Y195874D01*
X219383Y195750D01*
X220323Y195874D01*
X221199Y196236D01*
X221951Y196813D01*
X222528Y197565D01*
X222890Y198441D01*
X223014Y199381D01*
X222890Y200321D01*
X222528Y201197D01*
X221951Y201949D01*
X221199Y202526D01*
X220323Y202888D01*
X219383Y203012D01*
D02*
G37*
G36*
X189383D02*
X188443Y202888D01*
X187568Y202526D01*
X186816Y201949D01*
X186239Y201197D01*
X185876Y200321D01*
X185752Y199381D01*
X185876Y198441D01*
X186239Y197565D01*
X186816Y196813D01*
X187568Y196236D01*
X188443Y195874D01*
X189383Y195750D01*
X190323Y195874D01*
X191199Y196236D01*
X191951Y196813D01*
X192528Y197565D01*
X192891Y198441D01*
X193014Y199381D01*
X192891Y200321D01*
X192528Y201197D01*
X191951Y201949D01*
X191199Y202526D01*
X190323Y202888D01*
X189383Y203012D01*
D02*
G37*
G36*
X179383D02*
X178443Y202888D01*
X177568Y202526D01*
X176816Y201949D01*
X176239Y201197D01*
X175876Y200321D01*
X175752Y199381D01*
X175876Y198441D01*
X176239Y197565D01*
X176816Y196813D01*
X177568Y196236D01*
X178443Y195874D01*
X179383Y195750D01*
X180323Y195874D01*
X181199Y196236D01*
X181951Y196813D01*
X182528Y197565D01*
X182890Y198441D01*
X183014Y199381D01*
X182890Y200321D01*
X182528Y201197D01*
X181951Y201949D01*
X181199Y202526D01*
X180323Y202888D01*
X179383Y203012D01*
D02*
G37*
%LPD*%
D17*
X199500Y209500D02*
X204500Y204500D01*
Y194500D02*
Y204500D01*
X201000Y191000D02*
X204500Y194500D01*
X201000Y131500D02*
Y191000D01*
X220000Y37500D02*
Y44000D01*
X219383Y36883D02*
X220000Y37500D01*
X219383Y19381D02*
Y36883D01*
X214500Y13883D02*
X219383Y9000D01*
X214500Y13883D02*
Y51500D01*
X220000Y57000D01*
X209500Y19000D02*
Y60000D01*
X220000Y70500D01*
X159383Y19500D02*
X159500Y19617D01*
Y30000D01*
X173500Y44000D01*
X193500D01*
X149500Y173500D02*
Y199381D01*
Y173500D02*
X268500Y54500D01*
X288994D01*
X294144Y59650D01*
X160000Y87000D02*
Y102000D01*
Y117500D01*
D18*
X79383Y199381D02*
D03*
Y9381D02*
D03*
D19*
Y209381D02*
D03*
X159383Y199381D02*
D03*
X149383Y209381D02*
D03*
Y199381D02*
D03*
X129383D02*
D03*
X139383Y209381D02*
D03*
X129383D02*
D03*
X169383Y199381D02*
D03*
X139383D02*
D03*
X159383Y209381D02*
D03*
X199383D02*
D03*
X119383Y199381D02*
D03*
X109383D02*
D03*
Y209381D02*
D03*
X119383D02*
D03*
X209383D02*
D03*
Y199381D02*
D03*
X219383D02*
D03*
Y209381D02*
D03*
X299383Y199381D02*
D03*
X289383Y209381D02*
D03*
X279383Y199381D02*
D03*
Y209381D02*
D03*
X269383Y199381D02*
D03*
Y209381D02*
D03*
X259383D02*
D03*
X249383D02*
D03*
X239383D02*
D03*
X249383Y199381D02*
D03*
X239383D02*
D03*
X229383D02*
D03*
Y209381D02*
D03*
X99383Y199381D02*
D03*
Y209381D02*
D03*
X169383D02*
D03*
X199383Y199381D02*
D03*
X189383Y209381D02*
D03*
X259383Y199381D02*
D03*
X299383Y209381D02*
D03*
X289383Y199381D02*
D03*
X179383D02*
D03*
X189383D02*
D03*
X179383Y209381D02*
D03*
X89383Y199381D02*
D03*
Y209381D02*
D03*
X79383Y19381D02*
D03*
X159383Y9381D02*
D03*
X149383Y19381D02*
D03*
Y9381D02*
D03*
X129383D02*
D03*
X139383Y19381D02*
D03*
X129383D02*
D03*
X169383Y9381D02*
D03*
X139383D02*
D03*
X159383Y19381D02*
D03*
X199383D02*
D03*
X119383Y9381D02*
D03*
X109383D02*
D03*
Y19381D02*
D03*
X119383D02*
D03*
X209383D02*
D03*
Y9381D02*
D03*
X219383D02*
D03*
Y19381D02*
D03*
X299383Y9381D02*
D03*
X289383Y19381D02*
D03*
X279383Y9381D02*
D03*
Y19381D02*
D03*
X269383Y9381D02*
D03*
Y19381D02*
D03*
X259383D02*
D03*
X249383D02*
D03*
X239383D02*
D03*
X249383Y9381D02*
D03*
X239383D02*
D03*
X229383D02*
D03*
Y19381D02*
D03*
X99383Y9381D02*
D03*
Y19381D02*
D03*
X169383D02*
D03*
X199383Y9381D02*
D03*
X189383Y19381D02*
D03*
X259383Y9381D02*
D03*
X299383Y19381D02*
D03*
X289383Y9381D02*
D03*
X179383D02*
D03*
X189383D02*
D03*
X179383Y19381D02*
D03*
X89383Y9381D02*
D03*
Y19381D02*
D03*
D20*
X201000Y131500D02*
D03*
X220000Y44000D02*
D03*
Y57000D02*
D03*
Y70500D02*
D03*
X193500Y44000D02*
D03*
X294144Y59650D02*
D03*
X248850Y87618D02*
D03*
X287850Y59500D02*
D03*
X299413Y72530D02*
D03*
X266342Y140000D02*
D03*
X160000Y87000D02*
D03*
Y102000D02*
D03*
Y117500D02*
D03*
M02*
