G04 Layer_Color=16711935*
%FSLAX25Y25*%
%MOIN*%
G70*
G01*
G75*
%ADD34R,0.06400X0.06400*%
%ADD35C,0.06400*%
%ADD36C,0.02800*%
D34*
X79383Y199381D02*
D03*
Y9381D02*
D03*
D35*
Y209381D02*
D03*
X159383Y199381D02*
D03*
X149383Y209381D02*
D03*
Y199381D02*
D03*
X129383D02*
D03*
X139383Y209381D02*
D03*
X129383D02*
D03*
X169383Y199381D02*
D03*
X139383D02*
D03*
X159383Y209381D02*
D03*
X199383D02*
D03*
X119383Y199381D02*
D03*
X109383D02*
D03*
Y209381D02*
D03*
X119383D02*
D03*
X209383D02*
D03*
Y199381D02*
D03*
X219383D02*
D03*
Y209381D02*
D03*
X299383Y199381D02*
D03*
X289383Y209381D02*
D03*
X279383Y199381D02*
D03*
Y209381D02*
D03*
X269383Y199381D02*
D03*
Y209381D02*
D03*
X259383D02*
D03*
X249383D02*
D03*
X239383D02*
D03*
X249383Y199381D02*
D03*
X239383D02*
D03*
X229383D02*
D03*
Y209381D02*
D03*
X99383Y199381D02*
D03*
Y209381D02*
D03*
X169383D02*
D03*
X199383Y199381D02*
D03*
X189383Y209381D02*
D03*
X259383Y199381D02*
D03*
X299383Y209381D02*
D03*
X289383Y199381D02*
D03*
X179383D02*
D03*
X189383D02*
D03*
X179383Y209381D02*
D03*
X89383Y199381D02*
D03*
Y209381D02*
D03*
X79383Y19381D02*
D03*
X159383Y9381D02*
D03*
X149383Y19381D02*
D03*
Y9381D02*
D03*
X129383D02*
D03*
X139383Y19381D02*
D03*
X129383D02*
D03*
X169383Y9381D02*
D03*
X139383D02*
D03*
X159383Y19381D02*
D03*
X199383D02*
D03*
X119383Y9381D02*
D03*
X109383D02*
D03*
Y19381D02*
D03*
X119383D02*
D03*
X209383D02*
D03*
Y9381D02*
D03*
X219383D02*
D03*
Y19381D02*
D03*
X299383Y9381D02*
D03*
X289383Y19381D02*
D03*
X279383Y9381D02*
D03*
Y19381D02*
D03*
X269383Y9381D02*
D03*
Y19381D02*
D03*
X259383D02*
D03*
X249383D02*
D03*
X239383D02*
D03*
X249383Y9381D02*
D03*
X239383D02*
D03*
X229383D02*
D03*
Y19381D02*
D03*
X99383Y9381D02*
D03*
Y19381D02*
D03*
X169383D02*
D03*
X199383Y9381D02*
D03*
X189383Y19381D02*
D03*
X259383Y9381D02*
D03*
X299383Y19381D02*
D03*
X289383Y9381D02*
D03*
X179383D02*
D03*
X189383D02*
D03*
X179383Y19381D02*
D03*
X89383Y9381D02*
D03*
Y19381D02*
D03*
D36*
X201000Y131500D02*
D03*
X220000Y44000D02*
D03*
Y57000D02*
D03*
Y70500D02*
D03*
X193500Y44000D02*
D03*
X294144Y59650D02*
D03*
X248850Y87618D02*
D03*
X287850Y59500D02*
D03*
X299413Y72530D02*
D03*
X266342Y140000D02*
D03*
X160000Y87000D02*
D03*
Y102000D02*
D03*
Y117500D02*
D03*
M02*
