M48
;Layer_Color=9474304
;FILE_FORMAT=2:5
INCH,LZ
;TYPE=PLATED
T1F00S00C0.00800
T2F00S00C0.03000
%
T01
X01935Y0044
X022
Y0057
Y00705
X028785Y00595
X0294144Y005965
X0299413Y007253
X024885Y0087618
X0266342Y014
X0201Y01315
X016Y01175
Y0102
Y0087
T02
X0079383Y0009381
Y0019381
X0089383
X0099383
X0109383
Y0009381
X0119383
X0129383
Y0019381
X0139383
X0149383
Y0009381
X0159383
X0169383
Y0019381
X0159383
X0179383
X0189383
X0199383
X0209383
Y0009381
X0219383
Y0019381
X0229383
Y0009381
X0199383
X0189383
X0179383
X0139383
X0119383Y0019381
X0099383Y0009381
X0089383
X0239383
Y0019381
X0249383
X0259383
X0269383
X0279383
X0289383
X0299383
Y0009381
X0289383
X0279383
X0269383
X0259383
X0249383
Y0199381
Y0209381
X0259383
X0269383
X0279383
X0289383
X0299383
Y0199381
X0289383
X0279383
X0269383
X0259383
X0239383
Y0209381
X0229383
X0219383
X0209383
X0199383
Y0199381
X0209383
X0219383
X0229383
X0189383
Y0209381
X0179383
X0169383
Y0199381
X0159383
X0149383
Y0209381
X0139383
X0129383
Y0199381
X0139383
X0119383
X0109383
Y0209381
X0119383
X0099383
Y0199381
X0089383
X0079383
Y0209381
X0089383
X0159383
X0179383Y0199381
M30
