G04 Layer_Physical_Order=1*
G04 Layer_Color=255*
%FSLAX25Y25*%
%MOIN*%
G70*
G01*
G75*
%ADD10R,0.03740X0.03937*%
%ADD11R,0.03740X0.03543*%
%ADD12R,0.03150X0.03150*%
%ADD13R,0.03937X0.03937*%
%ADD14R,0.03937X0.03740*%
%ADD15R,0.03937X0.09646*%
%ADD16R,0.09646X0.03937*%
%ADD17C,0.01500*%
%ADD18R,0.06000X0.06000*%
%ADD19C,0.06000*%
%ADD20C,0.02200*%
G36*
X172527Y183027D02*
X172973Y182728D01*
X173500Y182624D01*
X254930D01*
X266917Y170636D01*
X266819Y170419D01*
X266328Y169811D01*
X266000Y169876D01*
X234718D01*
Y170970D01*
X229581D01*
Y166030D01*
X234718D01*
Y167124D01*
X265430D01*
X287013Y145540D01*
Y137116D01*
X285846D01*
Y137516D01*
X283278D01*
Y131693D01*
Y125870D01*
X285846D01*
Y126270D01*
X290333D01*
X291333Y126270D01*
X291958Y126270D01*
X295845D01*
X296470Y126270D01*
X297470Y126270D01*
X301357D01*
X301982Y126270D01*
X302982Y126270D01*
X304909D01*
Y87549D01*
X302982D01*
X302357Y87549D01*
Y87549D01*
X301982D01*
Y87549D01*
X297470D01*
X296845Y87549D01*
X295845Y87549D01*
X291958D01*
X291333Y87549D01*
X290333Y87549D01*
X286446D01*
X285447Y87549D01*
X284821Y87549D01*
X280935D01*
X280310Y87549D01*
X279309Y87549D01*
X275423D01*
X274798Y87549D01*
X273798Y87549D01*
X269911D01*
X269286Y87549D01*
X268286Y87549D01*
X263774D01*
Y76703D01*
X264966D01*
Y73913D01*
X264430Y73376D01*
X245570D01*
X240473Y78473D01*
X240027Y78772D01*
X239500Y78876D01*
X213874D01*
X213347Y78772D01*
X212901Y78473D01*
X212901Y78473D01*
X207496Y73068D01*
X204432D01*
Y67931D01*
X209569D01*
Y70503D01*
X209731Y70611D01*
X210731Y70076D01*
Y68030D01*
X215868D01*
Y69124D01*
X219000D01*
X219337Y68899D01*
X220000Y68767D01*
X220663Y68899D01*
X221226Y69274D01*
X221601Y69837D01*
X221733Y70500D01*
X221601Y71163D01*
X221226Y71726D01*
X220663Y72101D01*
X220000Y72233D01*
X219337Y72101D01*
X219000Y71877D01*
X215868D01*
Y72970D01*
X212597D01*
X212215Y73894D01*
X214444Y76124D01*
X238930D01*
X244027Y71027D01*
X244027Y71027D01*
X244473Y70728D01*
X245000Y70624D01*
X265000D01*
X265527Y70728D01*
X265973Y71027D01*
X267316Y72369D01*
X267614Y72816D01*
X267719Y73343D01*
Y75996D01*
X268426Y76703D01*
X269771Y76703D01*
X270478Y75996D01*
Y70424D01*
X266430Y66376D01*
X214374D01*
X213847Y66272D01*
X213401Y65973D01*
X206996Y59569D01*
X204306D01*
Y54431D01*
X209442D01*
Y57377D01*
X209605Y57485D01*
X210605Y56950D01*
Y54530D01*
X215742D01*
Y55624D01*
X219000D01*
X219337Y55399D01*
X220000Y55267D01*
X220663Y55399D01*
X221226Y55774D01*
X221601Y56337D01*
X221733Y57000D01*
X221601Y57663D01*
X221226Y58226D01*
X220663Y58601D01*
X220000Y58733D01*
X219337Y58601D01*
X219000Y58376D01*
X215742D01*
Y59470D01*
X212097D01*
X211715Y60394D01*
X214944Y63624D01*
X267000D01*
X267527Y63728D01*
X267973Y64027D01*
X272828Y68881D01*
X273126Y69328D01*
X273231Y69854D01*
Y75996D01*
X273938Y76703D01*
X275283Y76703D01*
X275990Y75996D01*
Y68936D01*
X258930Y51876D01*
X212500D01*
X211973Y51772D01*
X211527Y51473D01*
X211527Y51473D01*
X206622Y46569D01*
X204306D01*
Y41431D01*
X209442D01*
Y44643D01*
X209605Y44751D01*
X210605Y44217D01*
Y41530D01*
X215742D01*
Y42624D01*
X219000D01*
X219337Y42399D01*
X220000Y42267D01*
X220663Y42399D01*
X221226Y42774D01*
X221601Y43337D01*
X221733Y44000D01*
X221601Y44663D01*
X221226Y45226D01*
X220663Y45601D01*
X220000Y45733D01*
X219337Y45601D01*
X219000Y45377D01*
X215742D01*
Y46470D01*
X211831D01*
X211417Y47470D01*
X213070Y49124D01*
X259500D01*
X260027Y49228D01*
X260473Y49527D01*
X278339Y67393D01*
X278638Y67839D01*
X278743Y68366D01*
X278743Y68366D01*
Y75996D01*
X279450Y76703D01*
X280794Y76703D01*
X281502Y75996D01*
Y63948D01*
X254930Y37376D01*
X212500D01*
X211973Y37272D01*
X211527Y36973D01*
X211527Y36973D01*
X207622Y33068D01*
X204432D01*
Y27931D01*
X204432D01*
X204266Y27000D01*
X190253D01*
X189871Y27924D01*
X191070Y29124D01*
X198132D01*
Y28030D01*
X203269D01*
Y32970D01*
X198132D01*
Y31876D01*
X190500D01*
X189973Y31772D01*
X189527Y31473D01*
X185053Y27000D01*
X176376D01*
Y36430D01*
X195570Y55624D01*
X198006D01*
Y54530D01*
X203143D01*
Y59470D01*
X198006D01*
Y58376D01*
X195000D01*
X194473Y58272D01*
X194027Y57973D01*
X174027Y37973D01*
X173728Y37527D01*
X173624Y37000D01*
Y27000D01*
X156126D01*
Y53180D01*
X172070Y69124D01*
X198132D01*
Y68030D01*
X203269D01*
Y72970D01*
X198132D01*
Y71876D01*
X171500D01*
X171500Y71877D01*
X170973Y71772D01*
X170527Y71473D01*
X153777Y54723D01*
X153478Y54277D01*
X153374Y53750D01*
Y27000D01*
X82727D01*
Y30628D01*
X83780D01*
X83820Y30628D01*
X84780Y30529D01*
Y30228D01*
X87250D01*
Y33000D01*
X87650D01*
Y33400D01*
X90520D01*
Y35728D01*
Y38100D01*
X87650D01*
Y38900D01*
X90520D01*
Y41228D01*
Y43600D01*
X87650D01*
Y44000D01*
X87250D01*
Y46772D01*
X84780D01*
Y46470D01*
X83820Y46372D01*
X83780Y46372D01*
X80000D01*
Y83742D01*
X80036Y83756D01*
X80572Y84168D01*
X80984Y84705D01*
X81243Y85330D01*
X81331Y86000D01*
Y152441D01*
X81243Y153112D01*
X80984Y153736D01*
X80572Y154273D01*
X80036Y154685D01*
X80000Y154699D01*
Y192000D01*
X128007D01*
Y126117D01*
X128112Y125590D01*
X128410Y125144D01*
X160527Y93027D01*
X160527Y93027D01*
X160973Y92728D01*
X161500Y92624D01*
X186229D01*
X188360Y90492D01*
X187978Y89569D01*
X184932D01*
Y84431D01*
X188122D01*
X192027Y80527D01*
X192027Y80527D01*
X192473Y80228D01*
X193000Y80124D01*
X200374D01*
X200901Y80228D01*
X201347Y80527D01*
X212574Y91754D01*
X251177D01*
X251884Y91046D01*
X251884Y89702D01*
X251177Y88995D01*
X249850D01*
X249514Y89219D01*
X248850Y89351D01*
X248187Y89219D01*
X247625Y88844D01*
X247249Y88281D01*
X247117Y87618D01*
X247249Y86955D01*
X247625Y86392D01*
X248187Y86017D01*
X248850Y85885D01*
X249514Y86017D01*
X249850Y86242D01*
X251884D01*
Y85050D01*
X262730D01*
Y89561D01*
X262730Y90187D01*
X262730Y91187D01*
Y95698D01*
X262730D01*
Y96073D01*
X262730D01*
Y101210D01*
X262730D01*
X262730Y101585D01*
X262730D01*
Y106722D01*
X262730D01*
Y107097D01*
X262730D01*
Y112234D01*
X262730D01*
X262730Y112609D01*
X262730D01*
Y117121D01*
X262730Y117746D01*
X262730Y118746D01*
Y123258D01*
X262730D01*
X262730Y123632D01*
X262730D01*
Y128769D01*
X251884D01*
Y127876D01*
X249420D01*
X236970Y140327D01*
X236970Y143347D01*
X237370Y144181D01*
X237370Y144253D01*
Y146750D01*
X234500D01*
Y147150D01*
X234100D01*
Y150118D01*
X232370D01*
X231630Y150118D01*
X230630Y150118D01*
X228900D01*
Y147150D01*
X228500D01*
Y146750D01*
X225630D01*
Y144253D01*
X225630Y144181D01*
X226030Y143347D01*
X226030Y143181D01*
Y138282D01*
X228771D01*
X247338Y119716D01*
X247338Y119716D01*
X247784Y119417D01*
X248311Y119313D01*
X251177D01*
X251884Y118605D01*
X251884Y117084D01*
X251177Y116376D01*
X243070D01*
X230973Y128473D01*
X230527Y128772D01*
X230000Y128876D01*
X201650D01*
X201552Y129876D01*
X201663Y129899D01*
X202226Y130274D01*
X202601Y130837D01*
X202733Y131500D01*
X202601Y132163D01*
X202226Y132726D01*
X201663Y133101D01*
X201000Y133233D01*
X200337Y133101D01*
X200000Y132876D01*
X196368D01*
Y133970D01*
X191231D01*
Y132050D01*
X190231Y131515D01*
X190068Y131623D01*
Y134069D01*
X184932D01*
Y128931D01*
X188122D01*
X189677Y127376D01*
X189263Y126376D01*
X156070D01*
X145876Y136570D01*
Y192000D01*
X158007D01*
Y188000D01*
X158112Y187473D01*
X158410Y187027D01*
X177910Y167527D01*
X177910Y167527D01*
X178356Y167228D01*
X178883Y167124D01*
X223282D01*
Y166030D01*
X228419D01*
Y170970D01*
X223282D01*
Y169876D01*
X179453D01*
X160760Y188570D01*
Y192000D01*
X163553D01*
X172527Y183027D01*
D02*
G37*
%LPC*%
G36*
X167425Y89575D02*
X165250D01*
Y87400D01*
X167425D01*
Y89575D01*
D02*
G37*
G36*
X164450D02*
X162276D01*
Y87400D01*
X164450D01*
Y89575D01*
D02*
G37*
G36*
X266342Y141733D02*
X265679Y141601D01*
X265117Y141226D01*
X264741Y140663D01*
X264609Y140000D01*
X264741Y139337D01*
X264966Y139000D01*
Y137116D01*
X263774D01*
Y126270D01*
X268886D01*
Y125870D01*
X271454D01*
Y131693D01*
Y137516D01*
X268886D01*
Y137116D01*
X267719D01*
Y139000D01*
X267944Y139337D01*
X268076Y140000D01*
X267944Y140663D01*
X267568Y141226D01*
X267006Y141601D01*
X266342Y141733D01*
D02*
G37*
G36*
X183769Y89470D02*
X178632D01*
Y88376D01*
X173324D01*
Y89175D01*
X168975D01*
Y84825D01*
X173324D01*
Y85624D01*
X178632D01*
Y84530D01*
X183769D01*
Y89470D01*
D02*
G37*
G36*
X167425Y86600D02*
X165250D01*
Y84425D01*
X167425D01*
Y86600D01*
D02*
G37*
G36*
X90520Y46772D02*
X88050D01*
Y44400D01*
X90520D01*
Y46772D01*
D02*
G37*
G36*
Y32600D02*
X88050D01*
Y30228D01*
X90520D01*
Y32600D01*
D02*
G37*
G36*
X164450Y86600D02*
X162276D01*
Y84425D01*
X164450D01*
Y86600D01*
D02*
G37*
G36*
X203143Y46470D02*
X198006D01*
Y45376D01*
X194500D01*
X194163Y45601D01*
X193500Y45733D01*
X192837Y45601D01*
X192274Y45226D01*
X191899Y44663D01*
X191767Y44000D01*
X191899Y43337D01*
X192274Y42774D01*
X192837Y42399D01*
X193500Y42267D01*
X194163Y42399D01*
X194500Y42624D01*
X198006D01*
Y41530D01*
X203143D01*
Y46470D01*
D02*
G37*
G36*
X183769Y133970D02*
X178632D01*
Y132876D01*
X173324D01*
Y133675D01*
X168975D01*
Y129325D01*
X173324D01*
Y130124D01*
X178632D01*
Y129030D01*
X183769D01*
Y133970D01*
D02*
G37*
G36*
X167425Y134075D02*
X165250D01*
Y131900D01*
X167425D01*
Y134075D01*
D02*
G37*
G36*
X234900Y150118D02*
Y147550D01*
X237370D01*
Y150118D01*
X234900D01*
D02*
G37*
G36*
X228100D02*
X225630D01*
Y147550D01*
X228100D01*
Y150118D01*
D02*
G37*
G36*
X164450Y134075D02*
X162276D01*
Y131900D01*
X164450D01*
Y134075D01*
D02*
G37*
G36*
X282478Y137516D02*
X277766D01*
Y131693D01*
Y125870D01*
X282478D01*
Y131693D01*
Y137516D01*
D02*
G37*
G36*
X276966D02*
X272254D01*
Y131693D01*
Y125870D01*
X276966D01*
Y131693D01*
Y137516D01*
D02*
G37*
G36*
X167425Y131100D02*
X165250D01*
Y128925D01*
X167425D01*
Y131100D01*
D02*
G37*
G36*
X164450D02*
X162276D01*
Y128925D01*
X164450D01*
Y131100D01*
D02*
G37*
%LPD*%
D10*
X234500Y140850D02*
D03*
Y147150D02*
D03*
X228500Y140850D02*
D03*
Y147150D02*
D03*
X283000Y174650D02*
D03*
Y168350D02*
D03*
X289000Y174650D02*
D03*
Y168350D02*
D03*
D11*
X81350Y33000D02*
D03*
X87650D02*
D03*
X81350Y38500D02*
D03*
X87650D02*
D03*
X81350Y44000D02*
D03*
X87650Y44000D02*
D03*
D12*
X171150Y87000D02*
D03*
X164850D02*
D03*
X171150Y102000D02*
D03*
X164850D02*
D03*
X171150Y117500D02*
D03*
X164850D02*
D03*
X171150Y131500D02*
D03*
X164850D02*
D03*
D13*
X187500Y87000D02*
D03*
Y102000D02*
D03*
Y117500D02*
D03*
Y131500D02*
D03*
X207000Y70500D02*
D03*
X206874Y44000D02*
D03*
X206874Y57000D02*
D03*
X207000Y30500D02*
D03*
D14*
X181201Y87000D02*
D03*
X193799Y87000D02*
D03*
X181201Y102000D02*
D03*
X193799Y102000D02*
D03*
X181201Y117500D02*
D03*
X193799Y117500D02*
D03*
X181201Y131500D02*
D03*
X193799Y131500D02*
D03*
X213299Y70500D02*
D03*
X200701Y70500D02*
D03*
X213173Y44000D02*
D03*
X200575Y44000D02*
D03*
X213173Y57000D02*
D03*
X200575Y57000D02*
D03*
X213299Y30500D02*
D03*
X200701Y30500D02*
D03*
X287850Y64000D02*
D03*
X294150D02*
D03*
X225850Y168500D02*
D03*
X232150D02*
D03*
D15*
X304925Y131693D02*
D03*
X299413D02*
D03*
X293902D02*
D03*
X288390Y131693D02*
D03*
X282878Y131693D02*
D03*
X277366D02*
D03*
X271854D02*
D03*
X266342D02*
D03*
Y82126D02*
D03*
X271854D02*
D03*
X277366D02*
D03*
X282878D02*
D03*
X288390Y82126D02*
D03*
X293902Y82126D02*
D03*
X299413D02*
D03*
X304925D02*
D03*
D16*
X257307Y126201D02*
D03*
X257307Y120689D02*
D03*
Y115177D02*
D03*
X257307Y109665D02*
D03*
Y104154D02*
D03*
X257307Y98642D02*
D03*
Y93130D02*
D03*
Y87618D02*
D03*
D17*
X232500Y168500D02*
X266000D01*
X193799Y131500D02*
X201000D01*
X220000Y44000D02*
X220000Y44000D01*
X213173Y44000D02*
X220000D01*
X220000Y57000D02*
X220000Y57000D01*
X213173Y57000D02*
X220000D01*
Y70500D02*
X220000Y70500D01*
X213299Y70500D02*
X220000D01*
X193500Y44000D02*
X200575D01*
X195000Y57000D02*
X200575D01*
X175000Y37000D02*
X195000Y57000D01*
X175000Y13881D02*
Y37000D01*
X229500Y30500D02*
X234500Y25500D01*
Y14617D02*
Y25500D01*
X229383Y9500D02*
X234500Y14617D01*
X213299Y30500D02*
X229500D01*
X175000Y13881D02*
X179500Y9381D01*
Y19500D02*
X190500Y30500D01*
X200701D01*
X154750Y53750D02*
X171500Y70500D01*
X154750Y14133D02*
X159383Y9500D01*
X154750Y14133D02*
Y53750D01*
X171500Y70500D02*
X200701D01*
X212500Y36000D02*
X255500D01*
X207000Y30500D02*
X212500Y36000D01*
X255500D02*
X282878Y63378D01*
Y82126D01*
X207000Y44000D02*
Y45000D01*
X212500Y50500D01*
X259500D01*
X277366Y68366D01*
Y82126D01*
X267000Y65000D02*
X271854Y69854D01*
X206874Y57500D02*
X214374Y65000D01*
X267000D01*
X271854Y69854D02*
Y82126D01*
X206874Y70500D02*
X213874Y77500D01*
X239500D01*
X245000Y72000D01*
X265000D01*
X266342Y73343D01*
Y82126D01*
X294150Y59650D02*
Y64000D01*
X248920Y87618D02*
X257307D01*
X282878Y161122D02*
Y169000D01*
Y161122D02*
X299413Y144587D01*
Y131693D02*
Y144587D01*
X304182Y133000D02*
Y153169D01*
X289000Y168350D02*
X304182Y153169D01*
X160469Y205031D02*
X164500Y201000D01*
X153733Y205031D02*
X160469D01*
X164500Y193000D02*
Y201000D01*
X164000Y204500D02*
X180500D01*
X160000Y208500D02*
X164000Y204500D01*
X160000Y208500D02*
Y209500D01*
X180500Y204500D02*
X184500Y200500D01*
Y194500D02*
Y200500D01*
Y194500D02*
X186500Y192500D01*
X271150D01*
X289000Y174650D01*
X268528Y189000D02*
X282878Y174650D01*
X179764Y189000D02*
X268528D01*
X169383Y199381D02*
X179764Y189000D01*
X159383Y199381D02*
Y199500D01*
Y188000D02*
Y199381D01*
Y188000D02*
X178883Y168500D01*
X225850D01*
X293902Y131693D02*
Y145598D01*
X255500Y184000D02*
X293902Y145598D01*
X173500Y184000D02*
X255500D01*
X164500Y193000D02*
X173500Y184000D01*
X149383Y209381D02*
X153733Y205031D01*
X266000Y168500D02*
X288390Y146110D01*
Y131693D02*
Y146110D01*
X287850Y59500D02*
Y63850D01*
X288390Y64390D01*
Y82126D01*
X293902Y64098D02*
X294000Y64000D01*
X293902Y64098D02*
Y82126D01*
X299413Y72561D02*
Y82126D01*
Y72561D02*
X304925Y78072D01*
Y82126D01*
X266342Y131693D02*
Y140000D01*
X152500Y122500D02*
X188799D01*
X139383Y135617D02*
X152500Y122500D01*
X139383Y135617D02*
Y199381D01*
X144500Y136000D02*
X155500Y125000D01*
X144500Y136000D02*
Y204264D01*
X155500Y125000D02*
X197500D01*
X160000Y87000D02*
X164850D01*
X160000Y102000D02*
X164850D01*
X160000Y117500D02*
X164850D01*
X228500Y140500D02*
X248311Y120689D01*
X257307D01*
X248850Y126500D02*
X257307D01*
X234500Y140850D02*
X248850Y126500D01*
X79383Y10617D02*
X79500Y10500D01*
X79383Y10617D02*
Y19381D01*
X81350Y32650D02*
Y38500D01*
X81350Y32650D02*
X81500Y32500D01*
X81350Y32650D02*
X81350Y32650D01*
Y33000D01*
Y21467D02*
Y32650D01*
X79383Y19500D02*
X81350Y21467D01*
X81350Y38500D02*
Y44000D01*
X87650Y21231D02*
X89500Y19381D01*
X89000Y9381D02*
X89383Y9764D01*
Y19381D01*
X87650Y21231D02*
Y33000D01*
Y33500D02*
Y38500D01*
Y44000D01*
X181000Y131500D02*
X181500Y131000D01*
X171150Y131500D02*
X181000D01*
X139383Y209381D02*
X144500Y204264D01*
X139383Y199381D02*
Y200000D01*
X134500Y135500D02*
X160000Y110000D01*
X134500Y135500D02*
Y204264D01*
X129383Y209381D02*
X134500Y204264D01*
X129383Y126117D02*
X161500Y94000D01*
X129383Y126117D02*
Y199381D01*
X171150Y118000D02*
X171650Y117500D01*
X181201D01*
X171150Y102000D02*
X171150Y102000D01*
X181201D01*
X170500Y87000D02*
X181201D01*
X170500Y87000D02*
X170500Y87000D01*
X161500Y94000D02*
X186799D01*
X193799Y87000D01*
X193000Y81500D02*
X200374D01*
X187500Y87000D02*
X193000Y81500D01*
X200374D02*
X212004Y93130D01*
X257307D01*
X160000Y110000D02*
X185799D01*
X193799Y102000D01*
X257323Y115000D02*
X257500Y115177D01*
X242500Y115000D02*
X257323D01*
X230000Y127500D02*
X242500Y115000D01*
X191500Y127500D02*
X230000D01*
X187500Y131500D02*
X191500Y127500D01*
X188799Y122500D02*
X193799Y117500D01*
X197500Y125000D02*
X212835Y109665D01*
X257307D01*
X187000Y102000D02*
X190358Y98642D01*
X257307D01*
X187500Y117500D02*
X200847Y104154D01*
X257307D01*
D18*
X79383Y199381D02*
D03*
Y9381D02*
D03*
D19*
Y209381D02*
D03*
X159383Y199381D02*
D03*
X149383Y209381D02*
D03*
Y199381D02*
D03*
X129383D02*
D03*
X139383Y209381D02*
D03*
X129383D02*
D03*
X169383Y199381D02*
D03*
X139383D02*
D03*
X159383Y209381D02*
D03*
X199383D02*
D03*
X119383Y199381D02*
D03*
X109383D02*
D03*
Y209381D02*
D03*
X119383D02*
D03*
X209383D02*
D03*
Y199381D02*
D03*
X219383D02*
D03*
Y209381D02*
D03*
X299383Y199381D02*
D03*
X289383Y209381D02*
D03*
X279383Y199381D02*
D03*
Y209381D02*
D03*
X269383Y199381D02*
D03*
Y209381D02*
D03*
X259383D02*
D03*
X249383D02*
D03*
X239383D02*
D03*
X249383Y199381D02*
D03*
X239383D02*
D03*
X229383D02*
D03*
Y209381D02*
D03*
X99383Y199381D02*
D03*
Y209381D02*
D03*
X169383D02*
D03*
X199383Y199381D02*
D03*
X189383Y209381D02*
D03*
X259383Y199381D02*
D03*
X299383Y209381D02*
D03*
X289383Y199381D02*
D03*
X179383D02*
D03*
X189383D02*
D03*
X179383Y209381D02*
D03*
X89383Y199381D02*
D03*
Y209381D02*
D03*
X79383Y19381D02*
D03*
X159383Y9381D02*
D03*
X149383Y19381D02*
D03*
Y9381D02*
D03*
X129383D02*
D03*
X139383Y19381D02*
D03*
X129383D02*
D03*
X169383Y9381D02*
D03*
X139383D02*
D03*
X159383Y19381D02*
D03*
X199383D02*
D03*
X119383Y9381D02*
D03*
X109383D02*
D03*
Y19381D02*
D03*
X119383D02*
D03*
X209383D02*
D03*
Y9381D02*
D03*
X219383D02*
D03*
Y19381D02*
D03*
X299383Y9381D02*
D03*
X289383Y19381D02*
D03*
X279383Y9381D02*
D03*
Y19381D02*
D03*
X269383Y9381D02*
D03*
Y19381D02*
D03*
X259383D02*
D03*
X249383D02*
D03*
X239383D02*
D03*
X249383Y9381D02*
D03*
X239383D02*
D03*
X229383D02*
D03*
Y19381D02*
D03*
X99383Y9381D02*
D03*
Y19381D02*
D03*
X169383D02*
D03*
X199383Y9381D02*
D03*
X189383Y19381D02*
D03*
X259383Y9381D02*
D03*
X299383Y19381D02*
D03*
X289383Y9381D02*
D03*
X179383D02*
D03*
X189383D02*
D03*
X179383Y19381D02*
D03*
X89383Y9381D02*
D03*
Y19381D02*
D03*
D20*
X201000Y131500D02*
D03*
X220000Y44000D02*
D03*
Y57000D02*
D03*
Y70500D02*
D03*
X193500Y44000D02*
D03*
X294144Y59650D02*
D03*
X248850Y87618D02*
D03*
X287850Y59500D02*
D03*
X299413Y72530D02*
D03*
X266342Y140000D02*
D03*
X160000Y87000D02*
D03*
Y102000D02*
D03*
Y117500D02*
D03*
M02*
