G04 Layer_Color=8388736*
%FSLAX25Y25*%
%MOIN*%
G70*
G01*
G75*
%ADD27R,0.04340X0.04537*%
%ADD28R,0.04340X0.04143*%
%ADD29R,0.03750X0.03750*%
%ADD30R,0.04537X0.04537*%
%ADD31R,0.04537X0.04340*%
%ADD32R,0.04537X0.10246*%
%ADD33R,0.10246X0.04537*%
%ADD34R,0.06400X0.06400*%
%ADD35C,0.06400*%
%ADD36C,0.02800*%
D27*
X234500Y140850D02*
D03*
Y147150D02*
D03*
X228500Y140850D02*
D03*
Y147150D02*
D03*
X283000Y174650D02*
D03*
Y168350D02*
D03*
X289000Y174650D02*
D03*
Y168350D02*
D03*
D28*
X81350Y33000D02*
D03*
X87650D02*
D03*
X81350Y38500D02*
D03*
X87650D02*
D03*
X81350Y44000D02*
D03*
X87650Y44000D02*
D03*
D29*
X171150Y87000D02*
D03*
X164850D02*
D03*
X171150Y102000D02*
D03*
X164850D02*
D03*
X171150Y117500D02*
D03*
X164850D02*
D03*
X171150Y131500D02*
D03*
X164850D02*
D03*
D30*
X187500Y87000D02*
D03*
Y102000D02*
D03*
Y117500D02*
D03*
Y131500D02*
D03*
X207000Y70500D02*
D03*
X206874Y44000D02*
D03*
X206874Y57000D02*
D03*
X207000Y30500D02*
D03*
D31*
X181201Y87000D02*
D03*
X193799Y87000D02*
D03*
X181201Y102000D02*
D03*
X193799Y102000D02*
D03*
X181201Y117500D02*
D03*
X193799Y117500D02*
D03*
X181201Y131500D02*
D03*
X193799Y131500D02*
D03*
X213299Y70500D02*
D03*
X200701Y70500D02*
D03*
X213173Y44000D02*
D03*
X200575Y44000D02*
D03*
X213173Y57000D02*
D03*
X200575Y57000D02*
D03*
X213299Y30500D02*
D03*
X200701Y30500D02*
D03*
X287850Y64000D02*
D03*
X294150D02*
D03*
X225850Y168500D02*
D03*
X232150D02*
D03*
D32*
X304925Y131693D02*
D03*
X299413D02*
D03*
X293902D02*
D03*
X288390Y131693D02*
D03*
X282878Y131693D02*
D03*
X277366D02*
D03*
X271854D02*
D03*
X266342D02*
D03*
Y82126D02*
D03*
X271854D02*
D03*
X277366D02*
D03*
X282878D02*
D03*
X288390Y82126D02*
D03*
X293902Y82126D02*
D03*
X299413D02*
D03*
X304925D02*
D03*
D33*
X257307Y126201D02*
D03*
X257307Y120689D02*
D03*
Y115177D02*
D03*
X257307Y109665D02*
D03*
Y104154D02*
D03*
X257307Y98642D02*
D03*
Y93130D02*
D03*
Y87618D02*
D03*
D34*
X79383Y199381D02*
D03*
Y9381D02*
D03*
D35*
Y209381D02*
D03*
X159383Y199381D02*
D03*
X149383Y209381D02*
D03*
Y199381D02*
D03*
X129383D02*
D03*
X139383Y209381D02*
D03*
X129383D02*
D03*
X169383Y199381D02*
D03*
X139383D02*
D03*
X159383Y209381D02*
D03*
X199383D02*
D03*
X119383Y199381D02*
D03*
X109383D02*
D03*
Y209381D02*
D03*
X119383D02*
D03*
X209383D02*
D03*
Y199381D02*
D03*
X219383D02*
D03*
Y209381D02*
D03*
X299383Y199381D02*
D03*
X289383Y209381D02*
D03*
X279383Y199381D02*
D03*
Y209381D02*
D03*
X269383Y199381D02*
D03*
Y209381D02*
D03*
X259383D02*
D03*
X249383D02*
D03*
X239383D02*
D03*
X249383Y199381D02*
D03*
X239383D02*
D03*
X229383D02*
D03*
Y209381D02*
D03*
X99383Y199381D02*
D03*
Y209381D02*
D03*
X169383D02*
D03*
X199383Y199381D02*
D03*
X189383Y209381D02*
D03*
X259383Y199381D02*
D03*
X299383Y209381D02*
D03*
X289383Y199381D02*
D03*
X179383D02*
D03*
X189383D02*
D03*
X179383Y209381D02*
D03*
X89383Y199381D02*
D03*
Y209381D02*
D03*
X79383Y19381D02*
D03*
X159383Y9381D02*
D03*
X149383Y19381D02*
D03*
Y9381D02*
D03*
X129383D02*
D03*
X139383Y19381D02*
D03*
X129383D02*
D03*
X169383Y9381D02*
D03*
X139383D02*
D03*
X159383Y19381D02*
D03*
X199383D02*
D03*
X119383Y9381D02*
D03*
X109383D02*
D03*
Y19381D02*
D03*
X119383D02*
D03*
X209383D02*
D03*
Y9381D02*
D03*
X219383D02*
D03*
Y19381D02*
D03*
X299383Y9381D02*
D03*
X289383Y19381D02*
D03*
X279383Y9381D02*
D03*
Y19381D02*
D03*
X269383Y9381D02*
D03*
Y19381D02*
D03*
X259383D02*
D03*
X249383D02*
D03*
X239383D02*
D03*
X249383Y9381D02*
D03*
X239383D02*
D03*
X229383D02*
D03*
Y19381D02*
D03*
X99383Y9381D02*
D03*
Y19381D02*
D03*
X169383D02*
D03*
X199383Y9381D02*
D03*
X189383Y19381D02*
D03*
X259383Y9381D02*
D03*
X299383Y19381D02*
D03*
X289383Y9381D02*
D03*
X179383D02*
D03*
X189383D02*
D03*
X179383Y19381D02*
D03*
X89383Y9381D02*
D03*
Y19381D02*
D03*
D36*
X201000Y131500D02*
D03*
X220000Y44000D02*
D03*
Y57000D02*
D03*
Y70500D02*
D03*
X193500Y44000D02*
D03*
X294144Y59650D02*
D03*
X248850Y87618D02*
D03*
X287850Y59500D02*
D03*
X299413Y72530D02*
D03*
X266342Y140000D02*
D03*
X160000Y87000D02*
D03*
Y102000D02*
D03*
Y117500D02*
D03*
M02*
